<svg width="30" height="30" viewBox="0 0 30 30" fill="none" xmlns="http://www.w3.org/2000/svg">
<path d="M30 15C30 23.2842 23.2842 30 15 30C6.71667 30 0 23.2842 0 15C0 6.71667 6.71667 0 15 0C23.2842 0 30 6.71667 30 15Z" fill="#DA2F47"/>
<path d="M21.2376 24.8995C21.2001 24.7503 20.2643 21.2503 15.0001 21.2503C9.73514 21.2503 8.80015 24.7503 8.76265 24.8995C8.71681 25.0803 8.79848 25.2678 8.96014 25.3612C9.12264 25.452 9.32598 25.427 9.46014 25.297C9.47598 25.2812 11.0885 23.7503 15.0001 23.7503C18.9118 23.7503 20.5251 25.2812 20.5401 25.2962C20.6201 25.3753 20.7268 25.417 20.8335 25.417C20.9035 25.417 20.9743 25.3995 21.0385 25.3637C21.2018 25.2703 21.2835 25.0812 21.2376 24.8995ZM13.0893 14.4112C10.3768 11.6987 6.01764 11.667 5.83348 11.667C5.37348 11.667 5.00098 12.0395 5.00098 12.4987C5.00014 12.9587 5.37264 13.332 5.83264 13.3337C5.85681 13.3337 7.43681 13.352 9.15181 13.9478C8.65764 14.4812 8.33348 15.3095 8.33348 16.2503C8.33348 17.862 9.26598 19.167 10.4168 19.167C11.5676 19.167 12.5001 17.862 12.5001 16.2503C12.5001 16.1053 12.4843 15.967 12.4693 15.8278C12.4801 15.8278 12.4901 15.8337 12.5001 15.8337C12.7135 15.8337 12.9268 15.752 13.0893 15.5895C13.4151 15.2637 13.4151 14.737 13.0893 14.4112ZM24.1668 11.667C23.9826 11.667 19.6243 11.6987 16.911 14.4112C16.5851 14.737 16.5851 15.2637 16.911 15.5895C17.0735 15.752 17.2868 15.8337 17.5001 15.8337C17.511 15.8337 17.5201 15.8278 17.5301 15.8278C17.5168 15.967 17.5001 16.1053 17.5001 16.2503C17.5001 17.862 18.4326 19.167 19.5835 19.167C20.7343 19.167 21.6668 17.862 21.6668 16.2503C21.6668 15.3095 21.3426 14.4812 20.8485 13.9478C22.5635 13.352 24.1435 13.3337 24.1685 13.3337C24.6276 13.332 25.0001 12.9587 24.9993 12.4987C24.9985 12.0395 24.6268 11.667 24.1668 11.667Z" fill="#292F33"/>
</svg>
