<svg width="22" height="22" viewBox="0 0 22 22" fill="none" xmlns="http://www.w3.org/2000/svg">
<path d="M19.021 10.9978C19.021 10.6554 18.8691 10.3377 18.7254 10.0992C18.5702 9.84175 18.3615 9.57599 18.1326 9.31686C17.6733 8.79705 17.0741 8.23882 16.4926 7.73385C15.9077 7.22593 15.3248 6.75823 14.8894 6.41835C14.6713 6.24813 14.4893 6.10932 14.3615 6.01278C14.2976 5.9645 14.2472 5.92676 14.2125 5.90091L14.1726 5.87123L14.162 5.86339L14.1583 5.86067C13.8526 5.63548 13.4219 5.70047 13.1967 6.00618C12.9715 6.31187 13.0367 6.74223 13.3424 6.96743L13.3541 6.97605L13.3908 7.00335C13.4233 7.02755 13.4713 7.06352 13.5327 7.10991C13.6556 7.20273 13.8317 7.3371 14.0433 7.50226C14.4672 7.83315 15.0302 8.28497 15.5911 8.77205C16.1554 9.26209 16.702 9.77435 17.1021 10.2272C17.1274 10.2559 17.1519 10.284 17.1756 10.3117L3.66681 10.3117C3.28712 10.3117 2.97931 10.6195 2.97931 10.9992C2.97931 11.3789 3.28712 11.6867 3.66681 11.6867L17.1733 11.6867C17.1503 11.7135 17.1266 11.7407 17.1021 11.7684C16.702 12.2213 16.1554 12.7336 15.5911 13.2236C15.0302 13.7107 14.4673 14.1625 14.0433 14.4934C13.8317 14.6586 13.6556 14.7929 13.5327 14.8857C13.4713 14.9321 13.4233 14.9681 13.3908 14.9923L13.3541 15.0196L13.3424 15.0282C13.0367 15.2534 12.9715 15.6838 13.1967 15.9895C13.4219 16.2952 13.8526 16.3602 14.1583 16.135L14.162 16.1323L14.1726 16.1244L14.2125 16.0947C14.2472 16.0689 14.2976 16.0312 14.3615 15.9829C14.4893 15.8863 14.6713 15.7475 14.8894 15.5773C15.3248 15.2374 15.9077 14.7697 16.4926 14.2618C17.0741 13.7568 17.6733 13.1986 18.1326 12.6788C18.3615 12.4197 18.5702 12.1539 18.7254 11.8965C18.8683 11.6594 19.0192 11.3441 19.021 11.004" fill="#121A32"/>
</svg>
