<svg width="24" height="24" viewBox="0 0 24 24" fill="none" xmlns="http://www.w3.org/2000/svg">
<path fill-rule="evenodd" clip-rule="evenodd" d="M2.75 12C2.75 6.89 6.89 2.75 12 2.75C17.11 2.75 21.25 6.89 21.25 12C21.25 17.11 17.11 21.25 12 21.25C6.89 21.25 2.75 17.11 2.75 12ZM12 1.25C6.06 1.25 1.25 6.06 1.25 12C1.25 17.94 6.06 22.75 12 22.75C17.94 22.75 22.75 17.94 22.75 12C22.75 6.06 17.94 1.25 12 1.25ZM12.04 7.75H11.96C11.29 7.75 10.73 7.75005 10.28 7.80005C9.81 7.84005 9.37 7.95008 8.97 8.21008C8.67 8.41008 8.40999 8.66997 8.20999 8.96997C7.94999 9.36997 7.84001 9.81003 7.79001 10.28C7.74001 10.73 7.73999 11.2901 7.73999 11.9601V12.04C7.73999 12.71 7.74001 13.27 7.79001 13.72C7.84001 14.19 7.93999 14.63 8.20999 15.03C8.40999 15.33 8.67 15.59 8.97 15.79C9.37 16.05 9.81 16.1601 10.28 16.2001C10.73 16.2501 11.29 16.25 11.96 16.25H12.04C12.71 16.25 13.27 16.2501 13.72 16.2001C14.19 16.1601 14.63 16.05 15.03 15.79C15.33 15.59 15.59 15.33 15.79 15.03C16.05 14.63 16.16 14.19 16.21 13.72C16.26 13.27 16.26 12.71 16.26 12.04V11.9601C16.26 11.2901 16.26 10.73 16.21 10.28C16.16 9.81003 16.06 9.36997 15.79 8.96997C15.59 8.66997 15.33 8.41008 15.03 8.21008C14.63 7.95008 14.19 7.84005 13.72 7.80005C13.27 7.75005 12.71 7.75 12.04 7.75ZM9.81 9.46008C9.92 9.39008 10.08 9.32004 10.44 9.29004C10.81 9.25004 11.29 9.25 12.01 9.25C12.73 9.25 13.21 9.25004 13.58 9.29004C13.93 9.32004 14.1 9.39008 14.21 9.46008C14.35 9.55008 14.46 9.67006 14.56 9.81006C14.63 9.91006 14.7 10.0801 14.73 10.4301C14.77 10.8001 14.77 11.28 14.77 12C14.77 12.72 14.77 13.2001 14.73 13.5701C14.69 13.9201 14.63 14.0901 14.56 14.1901C14.47 14.3301 14.35 14.45 14.21 14.54C14.1 14.61 13.94 14.6801 13.58 14.7101C13.21 14.7501 12.73 14.75 12.01 14.75C11.29 14.75 10.81 14.7501 10.44 14.7101C10.09 14.6801 9.92 14.61 9.81 14.54C9.67 14.45 9.55999 14.3301 9.45999 14.1901C9.38999 14.0901 9.32001 13.9201 9.29001 13.5701C9.25001 13.2001 9.25 12.72 9.25 12C9.25 11.28 9.25001 10.8001 9.29001 10.4301C9.33001 10.0801 9.38999 9.91006 9.45999 9.81006C9.54999 9.67006 9.67 9.55008 9.81 9.46008Z" fill="#A855F7"/>
</svg>
