<svg width="27" height="27" viewBox="0 0 27 27" fill="none" xmlns="http://www.w3.org/2000/svg">
<circle cx="13.5" cy="13.5" r="12" stroke="#0F1724" stroke-width="3"/>
<path d="M8.70001 10.4992C8.70001 9.94009 8.70001 9.66052 8.79136 9.44C8.91315 9.14596 9.14676 8.91236 9.44079 8.79056C9.66132 8.69922 9.94088 8.69922 10.5 8.69922C11.0591 8.69922 11.3387 8.69922 11.5592 8.79056C11.8533 8.91236 12.0869 9.14596 12.2087 9.44C12.3 9.66052 12.3 9.94009 12.3 10.4992V16.4992C12.3 17.0583 12.3 17.3379 12.2087 17.5584C12.0869 17.8525 11.8533 18.0861 11.5592 18.2079C11.3387 18.2992 11.0591 18.2992 10.5 18.2992C9.94088 18.2992 9.66132 18.2992 9.44079 18.2079C9.14676 18.0861 8.91315 17.8525 8.79136 17.5584C8.70001 17.3379 8.70001 17.0583 8.70001 16.4992V10.4992Z" stroke="#0F1724" stroke-width="3"/>
<path d="M14.7 10.4992C14.7 9.94009 14.7 9.66052 14.7914 9.44C14.9131 9.14596 15.1468 8.91236 15.4408 8.79056C15.6613 8.69922 15.9409 8.69922 16.5 8.69922C17.0591 8.69922 17.3387 8.69922 17.5592 8.79056C17.8533 8.91236 18.0869 9.14596 18.2087 9.44C18.3 9.66052 18.3 9.94009 18.3 10.4992V16.4992C18.3 17.0583 18.3 17.3379 18.2087 17.5584C18.0869 17.8525 17.8533 18.0861 17.5592 18.2079C17.3387 18.2992 17.0591 18.2992 16.5 18.2992C15.9409 18.2992 15.6613 18.2992 15.4408 18.2079C15.1468 18.0861 14.9131 17.8525 14.7914 17.5584C14.7 17.3379 14.7 17.0583 14.7 16.4992V10.4992Z" stroke="#0F1724" stroke-width="3"/>
</svg>
