<svg width="60" height="60" viewBox="0 0 60 60" fill="none" xmlns="http://www.w3.org/2000/svg">
<path fill-rule="evenodd" clip-rule="evenodd" d="M30 60C46.5685 60 60 46.5685 60 30C60 13.4315 46.5685 0 30 0C13.4315 0 0 13.4315 0 30C0 46.5685 13.4315 60 30 60Z" fill="white"/>
<path fill-rule="evenodd" clip-rule="evenodd" d="M30 60C46.5685 60 60 46.5685 60 30C60 13.4315 46.5685 0 30 0C13.4315 0 0 13.4315 0 30C0 46.5685 13.4315 60 30 60ZM16.5006 27.6036C15.4355 28.6687 15.4355 30.3955 16.5006 31.4605L24.2145 39.1744C25.2796 40.2395 27.0064 40.2395 28.0714 39.1744L43.4992 23.7467C44.5643 22.6816 44.5643 20.9548 43.4992 19.8897C42.4342 18.8246 40.7073 18.8246 39.6423 19.8897L26.143 33.389L20.3575 27.6036C19.2925 26.5385 17.5657 26.5385 16.5006 27.6036Z" fill="#067647"/>
</svg>
