<svg width="16" height="16" viewBox="0 0 16 16" fill="none" xmlns="http://www.w3.org/2000/svg">
<path d="M9.33137 2.6665C9.8214 2.6665 10.2719 2.93529 10.5047 3.3665L10.8287 3.9665C11.0615 4.39772 11.512 4.66651 12.002 4.6665H13.3334C14.0693 4.6665 14.6667 5.26395 14.6667 5.99984V11.9998C14.6667 12.7357 14.0693 13.3332 13.3334 13.3332H2.66671C1.93082 13.3332 1.33337 12.7357 1.33337 11.9998V5.99984C1.33337 5.26395 1.93082 4.6665 2.66671 4.6665H3.99804C4.48754 4.66653 4.9377 4.39833 5.17071 3.96784L5.49671 3.36517C5.72971 2.93468 6.17987 2.66648 6.66937 2.6665L9.33137 2.6665" stroke="#0B0F19" stroke-width="1.33333" stroke-linecap="round" stroke-linejoin="round"/>
<path d="M6 8.6665C6 9.77033 6.89617 10.6665 8 10.6665C9.10383 10.6665 10 9.77033 10 8.6665C10 7.56267 9.10383 6.6665 8 6.6665C6.89617 6.6665 6 7.56267 6 8.6665V8.6665" stroke="#0B0F19" stroke-width="1.33333" stroke-linecap="round" stroke-linejoin="round"/>
</svg>
