<svg width="38" height="38" viewBox="0 0 38 38" fill="none" xmlns="http://www.w3.org/2000/svg">
<path fill-rule="evenodd" clip-rule="evenodd" d="M18.7575 5.10605e-07H18.8675H18.8675C19.9246 -1.54234e-05 20.7997 -2.8613e-05 21.5223 0.0615149C22.2796 0.126014 22.9639 0.263702 23.624 0.590482C24.7999 1.17265 25.5432 2.09784 26.0651 3.02575C26.4696 3.74507 26.7837 4.55318 27.0499 5.23806C27.1127 5.39967 27.1729 5.55443 27.2309 5.69956L27.4871 6.33995C27.6149 6.65937 27.6788 6.81908 27.8118 6.90933C27.9449 6.99957 28.1173 6.99984 28.4622 7.00038C30.0101 7.0028 31.1741 7.02049 32.0988 7.14791C33.2943 7.31265 34.1589 7.66661 35.0575 8.35613C35.5125 8.70526 35.9198 9.11252 36.2689 9.56751C37.0159 10.541 37.3323 11.6759 37.4811 12.9959C37.6251 14.2725 37.625 15.8732 37.625 17.8584V25.9085C37.625 28.3018 37.6251 30.2309 37.4211 31.7481C37.2093 33.3233 36.7563 34.6495 35.7029 35.7029C34.6495 36.7562 33.3233 37.2093 31.7481 37.4211C30.2309 37.6251 28.3018 37.625 25.9085 37.625H11.7165C9.3232 37.625 7.39414 37.6251 5.87694 37.4211C4.30175 37.2093 2.97547 36.7562 1.92212 35.7029C0.868764 34.6495 0.415699 33.3233 0.20392 31.7481C-5.78519e-05 30.2309 -3.16676e-05 28.3018 8.16839e-07 25.9086V25.9086V17.8584V17.8583C-2.04023e-05 15.8732 -3.75118e-05 14.2725 0.143879 12.9959C0.292687 11.6759 0.609136 10.541 1.35612 9.56751C1.70525 9.11252 2.11252 8.70526 2.56751 8.35613C3.4661 7.66661 4.33067 7.31265 5.52626 7.14791C6.45095 7.02049 7.6149 7.0028 9.16285 7.00038C9.50771 6.99984 9.68014 6.99957 9.8132 6.90933C9.94627 6.81908 10.0102 6.65937 10.1379 6.33995L10.3941 5.69956C10.4521 5.55444 10.5123 5.3997 10.5751 5.2381C10.8413 4.55322 11.1554 3.74507 11.5599 3.02576C12.0818 2.09784 12.8252 1.17265 14.001 0.590482C14.6611 0.263702 15.3454 0.126014 16.1027 0.0615149C16.8253 -2.8613e-05 17.7004 -1.54234e-05 18.7575 5.10605e-07H18.7575ZM11.8125 22.3125C11.8125 18.4465 14.9465 15.3125 18.8125 15.3125C22.6785 15.3125 25.8125 18.4465 25.8125 22.3125C25.8125 26.1785 22.6785 29.3125 18.8125 29.3125C14.9465 29.3125 11.8125 26.1785 11.8125 22.3125ZM18.8047 6.5625C17.8425 6.5625 17.0625 7.346 17.0625 8.3125C17.0625 9.27533 17.8617 10.0625 18.8203 10.0625C19.7825 10.0625 20.5625 9.279 20.5625 8.3125C20.5625 7.34968 19.7633 6.5625 18.8047 6.5625Z" fill="#161616"/>
</svg>
