<svg width="60" height="60" viewBox="0 0 60 60" fill="none" xmlns="http://www.w3.org/2000/svg">
<rect width="60" height="60" rx="30" fill="#EF5350"/>
<path fill-rule="evenodd" clip-rule="evenodd" d="M18.7052 18.7045C19.1445 18.2652 19.8568 18.2652 20.2962 18.7045L30.0007 28.409L39.7052 18.7045C40.1445 18.2652 40.8568 18.2652 41.2962 18.7045C41.7355 19.1438 41.7355 19.8562 41.2962 20.2955L31.5917 30L41.2962 39.7045C41.7355 40.1438 41.7355 40.8562 41.2962 41.2955C40.8568 41.7348 40.1445 41.7348 39.7052 41.2955L30.0007 31.591L20.2962 41.2955C19.8568 41.7348 19.1445 41.7348 18.7052 41.2955C18.2658 40.8562 18.2658 40.1438 18.7052 39.7045L28.4097 30L18.7052 20.2955C18.2658 19.8562 18.2658 19.1438 18.7052 18.7045Z" fill="#121A32" stroke="#130E0E" stroke-width="2" stroke-linecap="round" stroke-linejoin="round"/>
</svg>
