<svg width="18" height="18" viewBox="0 0 18 18" fill="none" xmlns="http://www.w3.org/2000/svg">
<path d="M10.125 2.4375C11.64 2.4375 12.473 2.43734 13.1855 2.90234C13.8979 3.38235 14.2204 4.15494 14.7979 5.5498L15.2402 6.61621L16.1631 5.9248C16.4105 5.73762 16.7627 5.79001 16.9502 6.03711C17.1377 6.28461 17.0854 6.63769 16.8379 6.8252L15.7646 7.62988L15.96 7.91992C16.455 8.66242 16.7556 9.10555 16.9131 9.62305C17.0629 10.1329 17.0625 10.6433 17.0625 11.5654V13.875C17.0625 14.2875 17.063 14.5129 16.958 14.7529C16.8305 15.0753 16.575 15.323 16.2451 15.458C16.0141 15.5623 15.7754 15.5615 15.375 15.5615C14.9823 15.5615 14.7438 15.5621 14.498 15.458C14.1831 15.3305 13.928 15.075 13.793 14.7451C13.6955 14.5126 13.6953 14.2875 13.6953 13.875C13.6953 13.68 13.6947 13.4773 13.6797 13.4248C13.6572 13.38 13.6278 13.3496 13.583 13.3271C13.523 13.3122 13.3277 13.3125 13.1328 13.3125H4.88281C4.68828 13.3125 4.49349 13.3123 4.44043 13.3271C4.38794 13.3496 4.35746 13.3798 4.33496 13.4248C4.31996 13.4773 4.32031 13.68 4.32031 13.875C4.32031 14.2875 4.31984 14.5129 4.21484 14.7529C4.08729 15.0751 3.8327 15.3231 3.50293 15.458C3.27043 15.563 3.03 15.5625 2.625 15.5625C2.22021 15.5625 1.98762 15.5629 1.74023 15.458C1.42529 15.3305 1.17017 15.075 1.03516 14.7451C0.937656 14.5126 0.9375 14.2875 0.9375 13.875V11.5654C0.9375 10.6432 0.938001 10.1329 1.08789 9.62305C1.24539 9.10555 1.54504 8.66242 2.04004 7.91992L2.23535 7.62891L1.16309 6.8252C0.915586 6.6377 0.863281 6.28461 1.05078 6.03711C1.23837 5.79008 1.59057 5.73748 1.83789 5.9248L2.75879 6.61523L3.20215 5.5498C3.78715 4.1548 4.10293 3.38266 4.81543 2.91016C5.52789 2.43774 6.36015 2.4375 7.875 2.4375H10.125ZM15.3828 15.5625H15.3672C15.3697 15.5625 15.3725 15.5615 15.375 15.5615C15.3775 15.5615 15.3803 15.5625 15.3828 15.5625ZM13.8154 8.37793C13.6579 8.41543 13.485 8.4375 13.3125 8.4375H4.6875C4.51522 8.43747 4.34286 8.41536 4.18555 8.37793L3.25 8.14355L2.97754 8.5498C2.50524 9.262 2.27303 9.61478 2.16797 9.95215C2.06297 10.2971 2.0625 10.7179 2.0625 11.5654V13.875C2.0625 14.07 2.06215 14.2727 2.07715 14.3252C2.09963 14.3702 2.12986 14.4004 2.1748 14.4229C2.29468 14.4603 2.96875 14.4528 3.06738 14.4229C3.11988 14.4004 3.15035 14.3702 3.17285 14.3252C3.18785 14.2727 3.1875 14.07 3.1875 13.875C3.1875 13.4627 3.18809 13.2379 3.29297 12.998C3.42046 12.6756 3.67491 12.427 4.00488 12.292C4.23738 12.187 4.47781 12.1875 4.88281 12.1875H13.1328C13.5301 12.1875 13.7702 12.1871 14.0176 12.292C14.3325 12.4195 14.5876 12.675 14.7227 13.0049C14.8202 13.2374 14.8203 13.4625 14.8203 13.875C14.8203 14.07 14.82 14.2727 14.835 14.3252C14.8575 14.3702 14.8876 14.4004 14.9326 14.4229C15.0529 14.4603 15.7276 14.4528 15.8252 14.4229C15.8776 14.4004 15.9072 14.37 15.9297 14.3252C15.9447 14.2727 15.9453 14.07 15.9453 13.875V11.5654C15.9453 10.7254 15.9448 10.2971 15.8398 9.95215C15.7348 9.61477 15.5026 9.26201 15.0303 8.5498L14.7559 8.14258L13.8154 8.37793ZM4.50781 9.75781C4.92014 9.75801 5.25781 10.0879 5.25781 10.5078C5.25765 10.9275 4.92004 11.2644 4.50781 11.2646V11.2578C4.09541 11.2578 3.75798 10.9202 3.75781 10.5078C3.75781 10.0953 4.09531 9.75781 4.50781 9.75781ZM13.5078 9.75781C13.9201 9.75801 14.2578 10.0879 14.2578 10.5078C14.2576 10.9275 13.92 11.2644 13.5078 11.2646V11.2578C13.0954 11.2578 12.758 10.9202 12.7578 10.5078C12.7578 10.0953 13.0953 9.75781 13.5078 9.75781ZM7.88281 3.5625C6.54034 3.5625 5.87281 3.56267 5.44531 3.84766C5.04031 4.12516 4.80012 4.66535 4.24512 5.98535L3.77637 7.11328L4.45508 7.28223C4.53008 7.30473 4.60566 7.3125 4.68066 7.3125H13.3125C13.3875 7.3125 13.4631 7.30473 13.5381 7.28223L14.2305 7.11133L13.7627 5.98535C13.2152 4.66535 12.975 4.11734 12.5625 3.83984C12.1425 3.56249 11.4675 3.5625 10.1328 3.5625H7.88281Z" fill="white"/>
</svg>
