<svg width="26" height="26" viewBox="0 0 26 26" fill="none" xmlns="http://www.w3.org/2000/svg">
<path d="M1 0C1.55228 0 2 0.447715 2 1V6.64941H3.66699C3.98275 6.64942 4.28689 6.65377 4.58105 6.6582C5.51939 6.67233 6.35957 6.68495 7.17285 6.54297C8.1648 6.36973 9.00765 5.97509 9.69824 5.05664C12.0947 1.86998 16.5724 1.86987 18.9688 5.05664C19.6594 5.97519 20.5021 6.36976 21.4941 6.54297C22.3075 6.68496 23.1475 6.67233 24.0859 6.6582C24.3802 6.65377 24.6841 6.64941 25 6.64941C25.5523 6.64941 26 7.09713 26 7.64941C25.9999 8.20163 25.5522 8.64941 25 8.64941C24.7585 8.64941 24.5034 8.65296 24.2393 8.65723C23.267 8.67291 22.1687 8.69142 21.1504 8.51367C19.7789 8.27425 18.4329 7.67228 17.3701 6.25879C15.7739 4.13598 12.8932 4.13608 11.2969 6.25879C10.2341 7.67223 8.88801 8.27423 7.5166 8.51367C6.49814 8.69147 5.39911 8.67292 4.42676 8.65723C4.16285 8.65297 3.90821 8.64942 3.66699 8.64941H2V15.667C2 17.895 2.0023 19.4657 2.16211 20.6543C2.31806 21.814 2.60761 22.4592 3.07422 22.9258C3.54083 23.3924 4.18598 23.6819 5.3457 23.8379C5.75152 23.8925 6.2022 23.9272 6.70801 23.9512C6.6813 23.8611 6.66703 23.7657 6.66699 23.667V14.333C6.66712 13.7808 7.11479 13.333 7.66699 13.333C8.21905 13.3332 8.66686 13.7809 8.66699 14.333V23.667C8.66695 23.7817 8.64597 23.8915 8.61035 23.9941C9.13707 23.9979 9.70926 24 10.333 24H13.333V10.333C13.3332 9.78098 13.781 9.33319 14.333 9.33301C14.8852 9.33301 15.3328 9.78087 15.333 10.333V24H20V14.333C20.0001 13.7808 20.4478 13.333 21 13.333C21.5522 13.333 21.9999 13.7808 22 14.333V24H25C25.5523 24 26 24.4477 26 25C26 25.5523 25.5523 26 25 26H10.2588C8.1221 26 6.4165 26.0001 5.0791 25.8203C3.69758 25.6345 2.56026 25.2399 1.66016 24.3398C0.76005 23.4397 0.36547 22.3024 0.179688 20.9209C-0.000121703 19.5835 -2.40789e-05 17.8779 0 15.7412V1C1.61065e-08 0.447716 0.447716 7.88702e-07 1 0Z" fill="#121A32"/>
</svg>
