<svg width="28" height="28" viewBox="0 0 28 28" fill="none" xmlns="http://www.w3.org/2000/svg">
<path d="M3.5 2.625C3.98325 2.625 4.375 3.01675 4.375 3.5V8.44336H5.83301C6.10927 8.44336 6.37544 8.4473 6.63281 8.45117C7.45395 8.46353 8.18968 8.47483 8.90137 8.35059C9.76925 8.19901 10.5061 7.85333 11.1104 7.0498C13.2072 4.26111 17.1258 4.26111 19.2227 7.0498C19.827 7.85356 20.5645 8.19904 21.4326 8.35059C22.1442 8.47479 22.8791 8.46353 23.7002 8.45117C23.9577 8.4473 24.2236 8.44336 24.5 8.44336C24.9832 8.44336 25.375 8.83511 25.375 9.31836C25.3748 9.80148 24.9832 10.1934 24.5 10.1934C24.2889 10.1934 24.066 10.1965 23.835 10.2002C22.9843 10.2139 22.0229 10.2297 21.1318 10.0742C19.9319 9.86473 18.7542 9.33825 17.8242 8.10156C16.4275 6.24397 13.9066 6.24407 12.5098 8.10156C11.5799 9.33827 10.4021 9.86469 9.20215 10.0742C8.31107 10.2298 7.34978 10.2139 6.49902 10.2002C6.26786 10.1965 6.04428 10.1934 5.83301 10.1934H4.375V16.333C4.375 18.2826 4.37677 19.6572 4.5166 20.6973C4.65305 21.7122 4.90614 22.2772 5.31445 22.6855C5.72277 23.0939 6.28781 23.3469 7.30273 23.4834C7.65798 23.5312 8.0523 23.561 8.49512 23.582C8.47174 23.5031 8.45801 23.4195 8.45801 23.333V15.167C8.45801 14.6839 8.84991 14.2922 9.33301 14.292C9.81626 14.292 10.208 14.6837 10.208 15.167V23.333C10.208 23.4333 10.1902 23.5294 10.1592 23.6191C10.6201 23.6224 11.1212 23.625 11.667 23.625H14.292V11.667C14.292 11.1837 14.6837 10.792 15.167 10.792C15.6501 10.7922 16.042 11.1839 16.042 11.667V23.625H20.125V15.167C20.125 14.6837 20.5168 14.292 21 14.292C21.4832 14.292 21.875 14.6837 21.875 15.167V23.625H24.5C24.9832 23.625 25.375 24.0168 25.375 24.5C25.375 24.9832 24.9832 25.375 24.5 25.375H11.6016C9.7319 25.375 8.23959 25.3751 7.06934 25.2178C5.86045 25.0552 4.86477 24.7105 4.07715 23.9229C3.28953 23.1352 2.94478 22.1395 2.78223 20.9307C2.62489 19.7604 2.62498 18.2681 2.625 16.3984V3.5C2.625 3.01675 3.01675 2.625 3.5 2.625Z" fill="white"/>
</svg>
