<svg width="20" height="20" viewBox="0 0 20 20" fill="none" xmlns="http://www.w3.org/2000/svg">
<path fill-rule="evenodd" clip-rule="evenodd" d="M10 1.04199C14.9476 1.04199 18.958 5.05245 18.958 10C18.958 14.9476 14.9476 18.958 10 18.958C5.05245 18.958 1.04199 14.9476 1.04199 10C1.04199 5.05245 5.05245 1.04199 10 1.04199ZM10 2.29199C5.74281 2.29199 2.29199 5.74281 2.29199 10C2.29199 14.2572 5.74281 17.708 10 17.708C14.2572 17.708 17.708 14.2572 17.708 10C17.708 5.74281 14.2572 2.29199 10 2.29199ZM10 6.04199C10.3452 6.04199 10.625 6.32181 10.625 6.66699V9.74121L12.1084 11.2246C12.3525 11.4687 12.3525 11.8643 12.1084 12.1084C11.8643 12.3525 11.4687 12.3525 11.2246 12.1084L9.55762 10.4424C9.44041 10.3252 9.375 10.1658 9.375 10V6.66699C9.375 6.32181 9.65482 6.04199 10 6.04199Z" fill="#55EEDA"/>
</svg>
