<svg width="22" height="19" viewBox="0 0 22 19" fill="none" xmlns="http://www.w3.org/2000/svg">
<path d="M7.83032 0.0366211C9.78331 -0.0124425 11.7172 -0.0124484 13.6702 0.0366211L13.7288 0.0375977C15.2532 0.075877 16.48 0.106658 17.4631 0.277832C18.4926 0.457125 19.3295 0.801677 20.0364 1.51123C20.7402 2.21779 21.0822 3.0424 21.2581 4.05518C21.4255 5.01953 21.4511 6.21693 21.4827 7.69971L21.4846 7.7583C21.5059 8.75437 21.5059 9.74465 21.4846 10.7407L21.4827 10.8003C21.4511 12.2828 21.4255 13.4796 21.2581 14.4438C21.0822 15.4566 20.7402 16.2812 20.0364 16.9878C19.3295 17.6973 18.4926 18.0419 17.4631 18.2212C16.48 18.3924 15.2532 18.4231 13.7288 18.4614L13.6702 18.4624C11.7172 18.5115 9.78331 18.5115 7.83032 18.4624L7.77173 18.4614C6.24728 18.4231 5.02053 18.3924 4.03735 18.2212C3.00785 18.0419 2.17098 17.6973 1.46411 16.9878C0.760256 16.2812 0.418307 15.4566 0.242432 14.4438C0.0750103 13.4796 0.0494135 12.2828 0.0178223 10.8003L0.0158691 10.7407C-0.00536667 9.74465 -0.00536693 8.75437 0.0158691 7.7583L0.0178223 7.69873C0.0494125 6.21618 0.0750007 5.01942 0.242432 4.05518C0.41831 3.04238 0.760225 2.21781 1.46411 1.51123C2.17098 0.801677 3.00786 0.457123 4.03735 0.277832C5.02053 0.106671 6.24729 0.0758736 7.77173 0.0375977L7.83032 0.0366211ZM1.67114 4.62842C1.56714 5.42093 1.54501 6.42304 1.51587 7.78955C1.49508 8.76458 1.49508 9.73444 1.51587 10.7095C1.54904 12.2648 1.57419 13.3485 1.71997 14.188C1.85956 14.9914 2.09955 15.5005 2.52661 15.9292C2.95088 16.3551 3.46666 16.5995 4.29419 16.7437C5.15535 16.8936 6.271 16.9233 7.86743 16.9634C9.79521 17.0118 11.7043 17.0118 13.6321 16.9634C15.2287 16.9233 16.3451 16.8936 17.2063 16.7437C18.0338 16.5995 18.5496 16.3551 18.9739 15.9292C19.4009 15.5005 19.6409 14.9914 19.7805 14.188C19.9263 13.3485 19.9515 12.2648 19.9846 10.7095C20.0054 9.73445 20.0054 8.76457 19.9846 7.78955C19.9555 6.42345 19.9313 5.42179 19.8274 4.62939L14.2073 7.81494C12.9142 8.54763 11.8635 8.99549 10.7512 8.99561C9.63873 8.99561 8.58747 8.54772 7.29419 7.81494L1.67114 4.62842ZM13.6321 1.53564C11.7043 1.48722 9.79521 1.48721 7.86743 1.53564C6.27099 1.57575 5.15535 1.60637 4.29419 1.75635C3.46673 1.90047 2.95085 2.14397 2.52661 2.56982C2.35363 2.74348 2.21229 2.93075 2.09497 3.14502L8.03345 6.51025C9.28874 7.22151 10.051 7.49561 10.7512 7.49561C11.4513 7.49549 12.213 7.22136 13.468 6.51025L19.4045 3.146C19.2872 2.93159 19.1469 2.74357 18.9739 2.56982C18.5497 2.14398 18.0337 1.90047 17.2063 1.75635C16.3451 1.60636 15.2287 1.57576 13.6321 1.53564Z" fill="white"/>
</svg>
