<svg width="28" height="28" viewBox="0 0 28 28" fill="none" xmlns="http://www.w3.org/2000/svg">
<path fill-rule="evenodd" clip-rule="evenodd" d="M7.52263 2.04151C6.47442 2.04147 5.60031 2.04144 4.9064 2.13474C4.17398 2.23321 3.51271 2.44983 2.98133 2.98121C2.44995 3.51259 2.23333 4.17385 2.13486 4.90628C2.04157 5.60019 2.04159 6.47426 2.04163 7.52248V7.64384C2.04159 8.69205 2.04157 9.56616 2.13486 10.2601C2.23333 10.9925 2.44995 11.6538 2.98133 12.1851C3.51271 12.7165 4.17398 12.9331 4.9064 13.0316C5.60031 13.1249 6.47439 13.1249 7.5226 13.1248H7.64396C8.69217 13.1249 9.56628 13.1249 10.2602 13.0316C10.9926 12.9331 11.6539 12.7165 12.1853 12.1851C12.7166 11.6538 12.9333 10.9925 13.0317 10.2601C13.125 9.56616 13.125 8.69208 13.125 7.64387V7.52251C13.125 6.4743 13.125 5.60019 13.0317 4.90628C12.9333 4.17385 12.7166 3.51259 12.1853 2.98121C11.6539 2.44983 10.9926 2.23321 10.2602 2.13474C9.56628 2.04144 8.69221 2.04147 7.64399 2.04151H7.52263ZM4.21877 4.21864C4.3708 4.06661 4.60122 3.94151 5.13959 3.86913C5.70313 3.79337 6.45862 3.79151 7.5833 3.79151C8.70798 3.79151 9.46346 3.79337 10.027 3.86913C10.5654 3.94151 10.7958 4.06661 10.9478 4.21864C11.0999 4.37068 11.225 4.60109 11.2973 5.13946C11.3731 5.70301 11.375 6.45849 11.375 7.58317C11.375 8.70785 11.3731 9.46334 11.2973 10.0269C11.225 10.5653 11.0999 10.7957 10.9478 10.9477C10.7958 11.0997 10.5654 11.2248 10.027 11.2972C9.46346 11.373 8.70798 11.3748 7.5833 11.3748C6.45862 11.3748 5.70313 11.373 5.13959 11.2972C4.60122 11.2248 4.3708 11.0997 4.21877 10.9477C4.06673 10.7957 3.94164 10.5653 3.86925 10.0269C3.79349 9.46334 3.79163 8.70785 3.79163 7.58317C3.79163 6.45849 3.79349 5.70301 3.86925 5.13946C3.94164 4.60109 4.06673 4.37068 4.21877 4.21864Z" fill="white"/>
<path fill-rule="evenodd" clip-rule="evenodd" d="M20.356 14.8748C19.3077 14.8748 18.4336 14.8748 17.7397 14.9681C17.0073 15.0665 16.346 15.2832 15.8147 15.8145C15.2833 16.3459 15.0667 17.0072 14.9682 17.7396C14.8749 18.4335 14.8749 19.3076 14.875 20.3558V20.4772C14.8749 21.5254 14.8749 22.3995 14.9682 23.0934C15.0667 23.8258 15.2833 24.4871 15.8147 25.0185C16.346 25.5499 17.0073 25.7665 17.7397 25.8649C18.4336 25.9582 19.3077 25.9582 20.3559 25.9582H20.4773C21.5255 25.9582 22.3996 25.9582 23.0935 25.8649C23.8259 25.7665 24.4872 25.5499 25.0186 25.0185C25.55 24.4871 25.7666 23.8258 25.8651 23.0934C25.9584 22.3995 25.9583 21.5255 25.9583 20.4773V20.3558C25.9583 19.3077 25.9584 18.4335 25.8651 17.7396C25.7666 17.0072 25.55 16.3459 25.0186 15.8145C24.4872 15.2832 23.8259 15.0665 23.0935 14.9681C22.3996 14.8748 21.5255 14.8748 20.4773 14.8748H20.356ZM17.0521 17.052C17.2041 16.8999 17.4345 16.7748 17.9729 16.7025C18.5365 16.6267 19.2919 16.6248 20.4166 16.6248C21.5413 16.6248 22.2968 16.6267 22.8603 16.7025C23.3987 16.7748 23.6291 16.8999 23.7812 17.052C23.9332 17.204 24.0583 17.4344 24.1307 17.9728C24.2064 18.5363 24.2083 19.2918 24.2083 20.4165C24.2083 21.5412 24.2064 22.2967 24.1307 22.8602C24.0583 23.3986 23.9332 23.629 23.7812 23.781C23.6291 23.9331 23.3987 24.0582 22.8603 24.1305C22.2968 24.2063 21.5413 24.2082 20.4166 24.2082C19.2919 24.2082 18.5365 24.2063 17.9729 24.1305C17.4345 24.0582 17.2041 23.9331 17.0521 23.781C16.9001 23.629 16.775 23.3986 16.7026 22.8602C16.6268 22.2967 16.625 21.5412 16.625 20.4165C16.625 19.2918 16.6268 18.5363 16.7026 17.9728C16.775 17.4344 16.9001 17.204 17.0521 17.052Z" fill="white"/>
<path fill-rule="evenodd" clip-rule="evenodd" d="M7.52263 14.8748H7.64396C8.69219 14.8748 9.56628 14.8748 10.2602 14.9681C10.9926 15.0665 11.6539 15.2832 12.1853 15.8145C12.7166 16.3459 12.9333 17.0072 13.0317 17.7396C13.125 18.4335 13.125 19.3076 13.125 20.3558V20.4772C13.125 21.5254 13.125 22.3995 13.0317 23.0934C12.9333 23.8258 12.7166 24.4871 12.1853 25.0185C11.6539 25.5499 10.9926 25.7665 10.2602 25.8649C9.56629 25.9582 8.69223 25.9582 7.64403 25.9582H7.52264C6.47444 25.9582 5.6003 25.9582 4.9064 25.8649C4.17398 25.7665 3.51271 25.5499 2.98133 25.0185C2.44995 24.4871 2.23333 23.8258 2.13486 23.0934C2.04157 22.3995 2.04159 21.5254 2.04163 20.4772V20.3558C2.04159 19.3076 2.04157 18.4335 2.13486 17.7396C2.23333 17.0072 2.44995 16.3459 2.98133 15.8145C3.51271 15.2832 4.17398 15.0665 4.9064 14.9681C5.60031 14.8748 6.4744 14.8748 7.52263 14.8748ZM5.13959 16.7025C4.60122 16.7748 4.3708 16.8999 4.21877 17.052C4.06673 17.204 3.94164 17.4344 3.86925 17.9728C3.79349 18.5363 3.79163 19.2918 3.79163 20.4165C3.79163 21.5412 3.79349 22.2967 3.86925 22.8602C3.94164 23.3986 4.06673 23.629 4.21877 23.781C4.3708 23.9331 4.60122 24.0582 5.13959 24.1305C5.70313 24.2063 6.45862 24.2082 7.5833 24.2082C8.70798 24.2082 9.46346 24.2063 10.027 24.1305C10.5654 24.0582 10.7958 23.9331 10.9478 23.781C11.0999 23.629 11.225 23.3986 11.2973 22.8602C11.3731 22.2967 11.375 21.5412 11.375 20.4165C11.375 19.2918 11.3731 18.5363 11.2973 17.9728C11.225 17.4344 11.0999 17.204 10.9478 17.052C10.7958 16.8999 10.5654 16.7748 10.027 16.7025C9.46346 16.6267 8.70798 16.6248 7.5833 16.6248C6.45862 16.6248 5.70313 16.6267 5.13959 16.7025Z" fill="white"/>
<path fill-rule="evenodd" clip-rule="evenodd" d="M20.356 2.04151C19.3077 2.04147 18.4336 2.04144 17.7397 2.13474C17.0073 2.23321 16.346 2.44983 15.8147 2.98121C15.2833 3.51259 15.0667 4.17385 14.9682 4.90628C14.8749 5.60019 14.8749 6.47428 14.875 7.52251V7.64384C14.8749 8.69207 14.8749 9.56615 14.9682 10.2601C15.0667 10.9925 15.2833 11.6538 15.8147 12.1851C16.346 12.7165 17.0073 12.9331 17.7397 13.0316C18.4336 13.1249 19.3077 13.1249 20.3559 13.1248H20.4773C21.5255 13.1249 22.3996 13.1249 23.0935 13.0316C23.8259 12.9331 24.4872 12.7165 25.0186 12.1851C25.55 11.6538 25.7666 10.9925 25.8651 10.2601C25.9584 9.56616 25.9583 8.69208 25.9583 7.64387V7.52251C25.9583 6.4743 25.9584 5.60019 25.8651 4.90628C25.7666 4.17385 25.55 3.51259 25.0186 2.98121C24.4872 2.44983 23.8259 2.23321 23.0935 2.13474C22.3996 2.04144 21.5255 2.04147 20.4773 2.04151H20.356ZM17.0521 4.21864C17.2041 4.06661 17.4345 3.94151 17.9729 3.86913C18.5365 3.79337 19.2919 3.79151 20.4166 3.79151C21.5413 3.79151 22.2968 3.79337 22.8603 3.86913C23.3987 3.94151 23.6291 4.06661 23.7812 4.21864C23.9332 4.37068 24.0583 4.60109 24.1307 5.13946C24.2064 5.70301 24.2083 6.45849 24.2083 7.58317C24.2083 8.70785 24.2064 9.46334 24.1307 10.0269C24.0583 10.5653 23.9332 10.7957 23.7812 10.9477C23.6291 11.0997 23.3987 11.2248 22.8603 11.2972C22.2968 11.373 21.5413 11.3748 20.4166 11.3748C19.2919 11.3748 18.5365 11.373 17.9729 11.2972C17.4345 11.2248 17.2041 11.0997 17.0521 10.9477C16.9001 10.7957 16.775 10.5653 16.7026 10.0269C16.6268 9.46334 16.625 8.70785 16.625 7.58317C16.625 6.45849 16.6268 5.70301 16.7026 5.13946C16.775 4.60109 16.9001 4.37068 17.0521 4.21864Z" fill="white"/>
</svg>
