<svg width="24" height="24" viewBox="0 0 24 24" fill="none" xmlns="http://www.w3.org/2000/svg">
<path fill-rule="evenodd" clip-rule="evenodd" d="M5.481 1.24493e-06C4.43279 -3.19256e-05 3.55868 -5.9586e-05 2.86478 0.0932334C2.13235 0.191706 1.47108 0.408321 0.939703 0.939703C0.408321 1.47108 0.191706 2.13235 0.0932334 2.86478C-5.9586e-05 3.55868 -3.19256e-05 4.43276 1.24493e-06 5.48097V5.60234C-3.19256e-05 6.65055 -5.9586e-05 7.52466 0.0932334 8.21856C0.191706 8.95099 0.408321 9.61226 0.939703 10.1436C1.47108 10.675 2.13235 10.8916 2.86478 10.9901C3.55868 11.0834 4.43276 11.0834 5.48097 11.0833H5.60233C6.65054 11.0834 7.52466 11.0834 8.21856 10.9901C8.95099 10.8916 9.61226 10.675 10.1436 10.1436C10.675 9.61226 10.8916 8.95099 10.9901 8.21856C11.0834 7.52466 11.0834 6.65058 11.0833 5.60237V5.48101C11.0834 4.4328 11.0834 3.55868 10.9901 2.86478C10.8916 2.13235 10.675 1.47108 10.1436 0.939703C9.61226 0.408321 8.95099 0.191706 8.21856 0.0932334C7.52466 -5.9586e-05 6.65058 -3.19256e-05 5.60237 1.24493e-06H5.481ZM2.17714 2.17714C2.32918 2.0251 2.55959 1.90001 3.09796 1.82763C3.6615 1.75186 4.41699 1.75 5.54167 1.75C6.66635 1.75 7.42184 1.75186 7.98538 1.82763C8.52375 1.90001 8.75416 2.0251 8.9062 2.17714C9.05824 2.32918 9.18333 2.55959 9.25571 3.09796C9.33148 3.6615 9.33334 4.41699 9.33334 5.54167C9.33334 6.66635 9.33148 7.42184 9.25571 7.98538C9.18333 8.52375 9.05824 8.75416 8.9062 8.9062C8.75416 9.05824 8.52375 9.18333 7.98538 9.25571C7.42184 9.33148 6.66635 9.33334 5.54167 9.33334C4.41699 9.33334 3.6615 9.33148 3.09796 9.25571C2.55959 9.18333 2.32918 9.05824 2.17714 8.9062C2.0251 8.75416 1.90001 8.52375 1.82763 7.98538C1.75186 7.42184 1.75 6.66635 1.75 5.54167C1.75 4.41699 1.75186 3.6615 1.82763 3.09796C1.90001 2.55959 2.0251 2.32918 2.17714 2.17714Z" fill="#121A32"/>
<path fill-rule="evenodd" clip-rule="evenodd" d="M18.3143 12.8333C17.2661 12.8333 16.392 12.8333 15.6981 12.9266C14.9657 13.025 14.3044 13.2417 13.773 13.773C13.2417 14.3044 13.025 14.9657 12.9266 15.6981C12.8333 16.392 12.8333 17.2661 12.8333 18.3143V18.4357C12.8333 19.4839 12.8333 20.358 12.9266 21.0519C13.025 21.7843 13.2417 22.4456 13.773 22.977C14.3044 23.5084 14.9657 23.725 15.6981 23.8234C16.392 23.9167 17.2661 23.9167 18.3142 23.9167H18.4357C19.4838 23.9167 20.358 23.9167 21.0519 23.8234C21.7843 23.725 22.4456 23.5084 22.977 22.977C23.5084 22.4456 23.725 21.7843 23.8234 21.0519C23.9167 20.358 23.9167 19.484 23.9167 18.4358V18.3143C23.9167 17.2662 23.9167 16.392 23.8234 15.6981C23.725 14.9657 23.5084 14.3044 22.977 13.773C22.4456 13.2417 21.7843 13.025 21.0519 12.9266C20.358 12.8333 19.4839 12.8333 18.4357 12.8333H18.3143ZM15.0105 15.0105C15.1625 14.8584 15.3929 14.7333 15.9313 14.661C16.4948 14.5852 17.2503 14.5833 18.375 14.5833C19.4997 14.5833 20.2552 14.5852 20.8187 14.661C21.3571 14.7333 21.5875 14.8584 21.7395 15.0105C21.8916 15.1625 22.0167 15.3929 22.089 15.9313C22.1648 16.4948 22.1667 17.2503 22.1667 18.375C22.1667 19.4997 22.1648 20.2552 22.089 20.8187C22.0167 21.3571 21.8916 21.5875 21.7395 21.7395C21.5875 21.8916 21.3571 22.0167 20.8187 22.089C20.2552 22.1648 19.4997 22.1667 18.375 22.1667C17.2503 22.1667 16.4948 22.1648 15.9313 22.089C15.3929 22.0167 15.1625 21.8916 15.0105 21.7395C14.8584 21.5875 14.7333 21.3571 14.661 20.8187C14.5852 20.2552 14.5833 19.4997 14.5833 18.375C14.5833 17.2503 14.5852 16.4948 14.661 15.9313C14.7333 15.3929 14.8584 15.1625 15.0105 15.0105Z" fill="#121A32"/>
<path fill-rule="evenodd" clip-rule="evenodd" d="M5.481 12.8333H5.60234C6.65056 12.8333 7.52465 12.8333 8.21856 12.9266C8.95099 13.025 9.61226 13.2417 10.1436 13.773C10.675 14.3044 10.8916 14.9657 10.9901 15.6981C11.0834 16.392 11.0834 17.2661 11.0833 18.3143V18.4357C11.0834 19.4839 11.0834 20.358 10.9901 21.0519C10.8916 21.7843 10.675 22.4456 10.1436 22.977C9.61226 23.5084 8.95099 23.725 8.21856 23.8234C7.52467 23.9167 6.6506 23.9167 5.6024 23.9167H5.48101C4.43281 23.9167 3.55867 23.9167 2.86478 23.8234C2.13235 23.725 1.47108 23.5084 0.939703 22.977C0.408321 22.4456 0.191706 21.7843 0.0932334 21.0519C-5.9586e-05 20.358 -3.19256e-05 19.4839 1.24493e-06 18.4357V18.3143C-3.19256e-05 17.2661 -5.9586e-05 16.392 0.0932334 15.6981C0.191706 14.9657 0.408321 14.3044 0.939703 13.773C1.47108 13.2417 2.13235 13.025 2.86478 12.9266C3.55869 12.8333 4.43278 12.8333 5.481 12.8333ZM3.09796 14.661C2.55959 14.7333 2.32918 14.8584 2.17714 15.0105C2.0251 15.1625 1.90001 15.3929 1.82763 15.9313C1.75186 16.4948 1.75 17.2503 1.75 18.375C1.75 19.4997 1.75186 20.2552 1.82763 20.8187C1.90001 21.3571 2.0251 21.5875 2.17714 21.7395C2.32918 21.8916 2.55959 22.0167 3.09796 22.089C3.6615 22.1648 4.41699 22.1667 5.54167 22.1667C6.66635 22.1667 7.42184 22.1648 7.98538 22.089C8.52375 22.0167 8.75416 21.8916 8.9062 21.7395C9.05824 21.5875 9.18333 21.3571 9.25571 20.8187C9.33148 20.2552 9.33334 19.4997 9.33334 18.375C9.33334 17.2503 9.33148 16.4948 9.25571 15.9313C9.18333 15.3929 9.05824 15.1625 8.9062 15.0105C8.75416 14.8584 8.52375 14.7333 7.98538 14.661C7.42184 14.5852 6.66635 14.5833 5.54167 14.5833C4.41699 14.5833 3.6615 14.5852 3.09796 14.661Z" fill="#121A32"/>
<path fill-rule="evenodd" clip-rule="evenodd" d="M18.3143 1.24493e-06C17.2661 -3.19256e-05 16.392 -5.9586e-05 15.6981 0.0932334C14.9657 0.191706 14.3044 0.408321 13.773 0.939703C13.2417 1.47108 13.025 2.13235 12.9266 2.86478C12.8333 3.55869 12.8333 4.43278 12.8333 5.481V5.60234C12.8333 6.65056 12.8333 7.52465 12.9266 8.21856C13.025 8.95099 13.2417 9.61226 13.773 10.1436C14.3044 10.675 14.9657 10.8916 15.6981 10.9901C16.392 11.0834 17.2661 11.0834 18.3143 11.0833H18.4357C19.4839 11.0834 20.358 11.0834 21.0519 10.9901C21.7843 10.8916 22.4456 10.675 22.977 10.1436C23.5084 9.61226 23.725 8.95099 23.8234 8.21856C23.9167 7.52466 23.9167 6.65058 23.9167 5.60237V5.48101C23.9167 4.4328 23.9167 3.55868 23.8234 2.86478C23.725 2.13235 23.5084 1.47108 22.977 0.939703C22.4456 0.408321 21.7843 0.191706 21.0519 0.0932334C20.358 -5.9586e-05 19.4839 -3.19256e-05 18.4357 1.24493e-06H18.3143ZM15.0105 2.17714C15.1625 2.0251 15.3929 1.90001 15.9313 1.82763C16.4948 1.75186 17.2503 1.75 18.375 1.75C19.4997 1.75 20.2552 1.75186 20.8187 1.82763C21.3571 1.90001 21.5875 2.0251 21.7395 2.17714C21.8916 2.32918 22.0167 2.55959 22.089 3.09796C22.1648 3.6615 22.1667 4.41699 22.1667 5.54167C22.1667 6.66635 22.1648 7.42184 22.089 7.98538C22.0167 8.52375 21.8916 8.75416 21.7395 8.9062C21.5875 9.05824 21.3571 9.18333 20.8187 9.25571C20.2552 9.33148 19.4997 9.33334 18.375 9.33334C17.2503 9.33334 16.4948 9.33148 15.9313 9.25571C15.3929 9.18333 15.1625 9.05824 15.0105 8.9062C14.8584 8.75416 14.7333 8.52375 14.661 7.98538C14.5852 7.42184 14.5833 6.66635 14.5833 5.54167C14.5833 4.41699 14.5852 3.6615 14.661 3.09796C14.7333 2.55959 14.8584 2.32918 15.0105 2.17714Z" fill="#121A32"/>
</svg>
