<svg width="200" height="200" viewBox="0 0 200 200" fill="none" xmlns="http://www.w3.org/2000/svg">
<path fill-rule="evenodd" clip-rule="evenodd" d="M72.793 16.3573C72.9638 19.8048 70.3076 22.7381 66.86 22.909C48.6149 23.8132 39.2828 26.5147 32.8988 32.8987C26.5148 39.2827 23.8133 48.6148 22.909 66.86C22.7382 70.3075 19.8049 72.9638 16.3573 72.7929C12.9098 72.6221 10.2535 69.6888 10.4244 66.2412C11.3458 47.6492 14.1057 34.0141 24.0599 24.0599C34.0141 14.1057 47.6493 11.3457 66.2413 10.4243C69.6888 10.2534 72.6221 12.9097 72.793 16.3573ZM127.207 16.3573C127.378 12.9097 130.311 10.2534 133.759 10.4243C152.351 11.3457 165.986 14.1057 175.94 24.0599C185.894 34.0141 188.654 47.6492 189.576 66.2412C189.747 69.6888 187.09 72.6221 183.643 72.7929C180.195 72.9638 177.262 70.3075 177.091 66.86C176.187 48.6148 173.485 39.2827 167.101 32.8987C160.717 26.5147 151.385 23.8132 133.14 22.909C129.692 22.7381 127.036 19.8048 127.207 16.3573ZM16.3573 127.207C19.8049 127.036 22.7382 129.692 22.909 133.14C23.8133 151.385 26.5148 160.717 32.8988 167.101C39.2828 173.485 48.6149 176.187 66.86 177.091C70.3075 177.262 72.9638 180.195 72.7929 183.643C72.6221 187.09 69.6888 189.746 66.2412 189.576C47.6492 188.654 34.0141 185.894 24.0599 175.94C14.1058 165.986 11.3458 152.351 10.4244 133.759C10.2535 130.311 12.9098 127.378 16.3573 127.207ZM183.643 127.207C187.09 127.378 189.747 130.311 189.576 133.759C188.654 152.351 185.894 165.986 175.94 175.94C165.986 185.894 152.351 188.654 133.759 189.576C130.311 189.746 127.378 187.09 127.207 183.643C127.036 180.195 129.692 177.262 133.14 177.091C151.385 176.187 160.717 173.485 167.101 167.101C173.485 160.717 176.187 151.385 177.091 133.14C177.262 129.692 180.195 127.036 183.643 127.207Z" fill="white" stroke="#FFF1F1" stroke-width="3" stroke-linecap="round" stroke-linejoin="round"/>
</svg>
