<svg width="31" height="31" viewBox="0 0 31 31" fill="none" xmlns="http://www.w3.org/2000/svg">
<path d="M15.3198 30.3062C23.5965 30.3062 30.3064 23.5963 30.3064 15.3196C30.3064 7.04291 23.5965 0.333008 15.3198 0.333008C7.04315 0.333008 0.333252 7.04291 0.333252 15.3196C0.333252 23.5963 7.04315 30.3062 15.3198 30.3062Z" fill="#FFEF5E"/>
<path d="M15.3198 5.54515C18.5573 5.5455 21.7194 6.52334 24.3919 8.35067C27.0645 10.178 29.1231 12.7697 30.2982 15.7864C30.2982 15.6311 30.3064 15.4758 30.3064 15.3191C30.3099 13.3291 29.9171 11.3584 29.1509 9.52179C28.3847 7.68523 27.2604 6.01966 25.8436 4.62226C24.4267 3.22487 22.7458 2.12364 20.8989 1.38282C19.0519 0.642012 17.0759 0.276456 15.0861 0.307486C13.0964 0.338517 11.1327 0.765512 9.30977 1.56356C7.48681 2.3616 5.84104 3.51471 4.46849 4.95561C3.09594 6.3965 2.0241 8.09633 1.31551 9.95589C0.606925 11.8155 0.275781 13.7975 0.341403 15.7864C1.51652 12.7697 3.5751 10.178 6.24767 8.35067C8.92023 6.52334 12.0822 5.5455 15.3198 5.54515Z" fill="#FFF9BF"/>
<path d="M15.3198 30.3062C23.5965 30.3062 30.3064 23.5963 30.3064 15.3196C30.3064 7.04291 23.5965 0.333008 15.3198 0.333008C7.04315 0.333008 0.333252 7.04291 0.333252 15.3196C0.333252 23.5963 7.04315 30.3062 15.3198 30.3062Z" stroke="#191919" stroke-width="0.666667" stroke-linecap="round" stroke-linejoin="round"/>
<path d="M8.15239 13.038C8.07117 13.0305 7.99566 12.993 7.94068 12.9328C7.8857 12.8725 7.85522 12.7939 7.85522 12.7123C7.85522 12.6308 7.8857 12.5522 7.94068 12.4919C7.99566 12.4317 8.07117 12.3942 8.15239 12.3867M8.15239 13.038C8.2336 13.0305 8.31047 12.993 8.36545 12.9328C8.42043 12.8725 8.45091 12.7939 8.45091 12.7123C8.45091 12.6308 8.42043 12.5522 8.36545 12.4919C8.31047 12.4317 8.2336 12.3942 8.15239 12.3867M22.4864 13.038C22.4051 13.0305 22.3296 12.993 22.2747 12.9328C22.2197 12.8725 22.1892 12.7939 22.1892 12.7123C22.1892 12.6308 22.2197 12.5522 22.2747 12.4919C22.3296 12.4317 22.4051 12.3942 22.4864 12.3867M22.4864 13.038C22.5676 13.0305 22.6431 12.993 22.6981 12.9328C22.753 12.8725 22.7835 12.7939 22.7835 12.7123C22.7835 12.6308 22.753 12.5522 22.6981 12.4919C22.6431 12.4317 22.5676 12.3942 22.4864 12.3867" stroke="#191919" stroke-width="0.666667"/>
<path d="M20.3675 19.8809C20.5662 19.8809 20.7622 19.9264 20.9407 20.0137C21.1191 20.1011 21.2753 20.2282 21.3971 20.3851C21.519 20.5421 21.6033 20.7248 21.6438 20.9193C21.6842 21.1139 21.6797 21.3151 21.6304 21.5076C21.2711 22.9083 20.4559 24.1497 19.3134 25.0361C18.1708 25.9226 16.7658 26.4037 15.3197 26.4037C13.8736 26.4037 12.4686 25.9226 11.3261 25.0361C10.1835 24.1497 9.36838 22.9083 9.00903 21.5076C8.95954 21.3151 8.95477 21.1138 8.9951 20.9191C9.03543 20.7244 9.11978 20.5416 9.24168 20.3846C9.36359 20.2276 9.51982 20.1005 9.69841 20.0132C9.87699 19.9259 10.0732 19.8806 10.272 19.8809H20.3675Z" fill="#FF808C" stroke="#191919" stroke-width="0.666667" stroke-linecap="round" stroke-linejoin="round"/>
</svg>
