<svg width="16" height="16" viewBox="0 0 16 16" fill="none" xmlns="http://www.w3.org/2000/svg">
<path d="M8 0.833008C11.5897 0.833008 14.4998 3.74331 14.5 7.33301V10.584C14.5 11.2365 14.5004 11.7537 14.4697 12.1719C14.4383 12.5994 14.3722 12.9633 14.2207 13.2998C13.9031 14.0053 13.3383 14.5702 12.6328 14.8877C12.2964 15.0391 11.9332 15.1043 11.5059 15.1357C11.0875 15.1665 10.5697 15.167 9.91699 15.167H8C7.72397 15.167 7.50018 14.943 7.5 14.667C7.5 14.3909 7.72386 14.167 8 14.167H9.89746C10.5743 14.167 11.0552 14.1664 11.4326 14.1387C11.8049 14.1113 12.0373 14.059 12.2227 13.9756C12.7053 13.7583 13.0923 13.3723 13.3096 12.8896C13.393 12.7042 13.4443 12.4711 13.4717 12.0986C13.4817 11.9625 13.4871 11.8129 13.4912 11.6455C12.9254 12.1738 12.1682 12.5 11.333 12.5C10.3207 12.4998 9.50018 11.6793 9.5 10.667V8C9.5 6.98759 10.3206 6.16717 11.333 6.16699C12.1675 6.16699 12.9246 6.492 13.4902 7.01953C13.3276 4.128 10.9322 1.83301 8 1.83301C5.06775 1.83301 2.67143 4.12797 2.50879 7.01953C3.07451 6.49171 3.83224 6.16699 4.66699 6.16699C5.67936 6.16717 6.5 6.98759 6.5 8V10.667C6.49982 11.6793 5.67926 12.4998 4.66699 12.5C2.91809 12.5 1.5 11.0819 1.5 9.33301V7.33301C1.50018 3.74331 4.41026 0.833008 8 0.833008ZM4.66699 7.16699C3.47048 7.16699 2.50018 8.13654 2.5 9.33301C2.5 10.5296 3.47038 11.5 4.66699 11.5C5.12697 11.4998 5.49982 11.127 5.5 10.667V8C5.5 7.53987 5.12708 7.16717 4.66699 7.16699ZM11.333 7.16699C10.8729 7.16717 10.5 7.53987 10.5 8V10.667C10.5002 11.127 10.873 11.4998 11.333 11.5C12.5296 11.5 13.5 10.5296 13.5 9.33301C13.4998 8.13654 12.5295 7.16699 11.333 7.16699Z" fill="#A855F7"/>
</svg>
