<svg width="28" height="28" viewBox="0 0 28 28" fill="none" xmlns="http://www.w3.org/2000/svg">
<path fill-rule="evenodd" clip-rule="evenodd" d="M13.9998 1.4585C12.9805 1.4585 12.0771 1.80808 11.1137 2.39089C10.1806 2.95538 9.11411 3.78818 7.7753 4.83367L6.39498 5.91148C4.78967 7.16421 3.75203 7.97394 3.18775 9.13231C2.62371 10.2902 2.62414 11.6086 2.6248 13.65L2.62485 16.3719C2.62483 18.5249 2.62481 20.2296 2.80344 21.5635C2.9872 22.9358 3.37426 24.0462 4.24672 24.9222C5.6354 26.3164 7.65481 26.5006 10.4871 26.5417C10.7214 26.5451 10.9472 26.4545 11.1141 26.29C11.2809 26.1256 11.3748 25.9011 11.3748 25.6668V21.0068C11.3748 20.4512 11.3753 20.0784 11.395 19.7896C11.4142 19.5088 11.4486 19.372 11.4858 19.2821C11.6338 18.9248 11.9177 18.6409 12.2749 18.4928C12.365 18.4555 12.5018 18.4211 12.7827 18.402C13.0714 18.3823 13.4443 18.3818 13.9998 18.3818C14.5554 18.3818 14.9283 18.3823 15.217 18.402C15.4977 18.4211 15.6347 18.4555 15.7248 18.4928C16.082 18.6409 16.3659 18.9248 16.5139 19.282C16.5511 19.372 16.5855 19.5088 16.6047 19.7896C16.6244 20.0783 16.6248 20.4512 16.6248 21.0068V25.6668C16.6248 25.9011 16.7188 26.1256 16.8856 26.29C17.0525 26.4545 17.2783 26.5451 17.5126 26.5417C20.3449 26.5006 22.3642 26.3164 23.7529 24.9222C24.6254 24.0462 25.0125 22.9358 25.1962 21.5635C25.3749 20.2296 25.3749 18.525 25.3748 16.372L25.3749 13.6501C25.3756 11.6086 25.376 10.2901 24.812 9.13227C24.2476 7.97383 23.2099 7.16409 21.6043 5.91115L20.2242 4.83354C18.8855 3.78811 17.8191 2.95536 16.886 2.39089C15.9226 1.80808 15.0192 1.4585 13.9998 1.4585ZM8.80819 6.24738C10.2013 5.15953 11.1862 4.3923 12.0194 3.88823C12.8326 3.39629 13.418 3.2085 13.9998 3.2085C14.5815 3.2085 15.1669 3.39629 15.9801 3.88822C16.8133 4.3923 17.7982 5.15953 19.1913 6.24739L20.358 7.15842C22.1947 8.59263 22.8734 9.14909 23.2386 9.89867C23.604 10.6488 23.6248 11.5295 23.6248 13.8655V16.3063C23.6248 18.5396 23.6229 20.127 23.4616 21.3313C23.3037 22.5107 23.0073 23.1909 22.513 23.6872C21.7876 24.4155 20.7039 24.69 18.3748 24.7708V20.9773C18.3748 20.4588 18.3748 20.0259 18.3505 19.6705C18.3253 19.3006 18.2709 18.9511 18.1306 18.6123C17.8049 17.8261 17.1801 17.2015 16.3941 16.8759C16.0553 16.7357 15.7059 16.6813 15.336 16.656C14.9806 16.6318 14.5478 16.6318 14.0292 16.6318H13.9703C13.4517 16.6318 13.0189 16.6318 12.6635 16.656C12.2936 16.6813 11.9442 16.7357 11.6054 16.8759C10.8194 17.2016 10.1946 17.8262 9.86897 18.6124C9.72864 18.9511 9.67423 19.3006 9.64899 19.6705C9.62474 20.0259 9.62475 20.4588 9.62476 20.9773V24.7708C7.29565 24.69 6.21192 24.4155 5.48655 23.6873C4.99218 23.1909 4.69582 22.5108 4.53787 21.3313C4.3766 20.127 4.37476 18.5396 4.37476 16.3063V13.8655C4.37476 11.5295 4.3955 10.6488 4.76092 9.8987C5.12607 9.14912 5.80478 8.59271 7.64151 7.15842L8.80819 6.24738Z" fill="white"/>
</svg>
