<svg width="138" height="146" viewBox="0 0 138 146" fill="none" xmlns="http://www.w3.org/2000/svg">
<path opacity="0.9" d="M71.2 0C31.8753 0 0 32.2679 0 72.0768C0 96.9569 12.4199 118.909 31.3458 131.982C31.2167 131.536 31.15 131.09 31.15 130.639C31.15 118.202 41.1135 108.115 53.4 108.115C59.541 108.115 65.1035 110.638 69.1352 114.71C73.1669 118.792 78.7294 121.63 84.55 121.63C96.8364 121.63 106.8 131.716 106.8 144.154C106.8 144.604 106.733 145.05 106.604 145.496C125.53 132.423 137.95 110.471 137.95 85.5912C137.95 45.7823 106.075 13.5144 71.2 13.5144V0Z" fill="#55EEDA"/>
<path d="M71.1996 85.5913C78.5726 85.5913 84.5496 79.5407 84.5496 72.0769C84.5496 64.6131 78.5726 58.5625 71.1996 58.5625C63.8266 58.5625 57.8496 64.6131 57.8496 72.0769C57.8496 79.5407 63.8266 85.5913 71.1996 85.5913Z" fill="#121A32"/>
</svg>
