<svg width="138" height="144" viewBox="0 0 138 144" fill="none" xmlns="http://www.w3.org/2000/svg">
<path opacity="0.9" d="M71.2 0C31.8753 0 0 31.8754 0 71.2C0 95.7774 12.4199 117.462 31.3458 130.376C31.2167 129.936 31.15 129.495 31.15 129.05C31.15 116.764 41.1135 106.8 53.4 106.8C59.541 106.8 65.1035 109.292 69.1352 113.315C73.1669 117.347 78.7294 120.15 84.55 120.15C96.8364 120.15 106.8 130.114 106.8 142.4C106.8 142.845 106.733 143.286 106.604 143.726C125.53 130.812 137.95 109.127 137.95 84.55C137.95 45.2254 106.075 13.35 71.2 13.35V0Z" fill="#55EEDA"/>
<path d="M71.1996 84.5506C78.5726 84.5506 84.5496 78.5736 84.5496 71.2006C84.5496 63.8276 78.5726 57.8506 71.1996 57.8506C63.8266 57.8506 57.8496 63.8276 57.8496 71.2006C57.8496 78.5736 63.8266 84.5506 71.1996 84.5506Z" fill="#121A32"/>
</svg>
