<svg width="30" height="30" viewBox="0 0 30 30" fill="none" xmlns="http://www.w3.org/2000/svg">
<path d="M30 15C30 23.2842 23.2842 30 15 30C6.71583 30 0 23.2842 0 15C0 6.71583 6.71583 0 15 0C23.2842 0 30 6.71583 30 15Z" fill="#FFCC4D"/>
<path d="M15 18.2071C12.5283 18.2071 10.8875 17.9188 8.85914 17.5246C8.39497 17.4363 7.49414 17.5246 7.49414 18.8896C7.49414 21.6188 10.63 25.0305 15 25.0305C19.37 25.0305 22.5058 21.6188 22.5058 18.8896C22.5058 17.5246 21.6041 17.4355 21.1408 17.5246C19.1125 17.9188 17.4725 18.2071 15 18.2071Z" fill="#664500"/>
<path d="M13.8756 2.73403C13.1597 0.708201 10.9389 -0.355133 8.91223 0.359034C7.68223 0.792367 6.81139 1.78487 6.47223 2.9457C5.47973 2.25487 4.17973 2.02903 2.95139 2.46237C0.926395 3.17737 -0.138605 5.39987 0.577228 7.4257C0.678895 7.71237 0.813895 7.9782 0.970562 8.22403C2.5964 11.209 7.2939 13.3074 10.1381 13.3332C12.3356 11.5274 14.6764 6.9457 14.0697 3.60237C14.0381 3.31237 13.9756 3.0207 13.8756 2.73403ZM16.1256 2.73403C16.8414 0.708201 19.0631 -0.355133 21.0889 0.359034C22.3189 0.792367 23.1897 1.78487 23.5297 2.9457C24.5222 2.25487 25.8222 2.02903 27.0506 2.46237C29.0756 3.17737 30.1397 5.39987 29.4256 7.4257C29.3231 7.71237 29.1889 7.9782 29.0314 8.22403C27.4056 11.209 22.7081 13.3074 19.8631 13.3332C17.6656 11.5274 15.3256 6.9457 15.9322 3.60237C15.9631 3.31237 16.0256 3.0207 16.1256 2.73403Z" fill="#DD2E44"/>
</svg>
