<svg width="20" height="20" viewBox="0 0 20 20" fill="none" xmlns="http://www.w3.org/2000/svg">
<path d="M16.667 8.54199C17.012 8.54217 17.292 8.82192 17.292 9.16699C17.2918 12.9834 14.3594 16.1146 10.625 16.4316V17.708H12.5C12.8451 17.708 13.1248 17.988 13.125 18.333C13.125 18.6782 12.8452 18.958 12.5 18.958H7.5C7.15482 18.958 6.875 18.6782 6.875 18.333C6.87518 17.988 7.15493 17.708 7.5 17.708H9.375V16.4316C5.64062 16.1146 2.70817 12.9834 2.70801 9.16699C2.70801 8.82192 2.98798 8.54217 3.33301 8.54199C3.67819 8.54199 3.95801 8.82181 3.95801 9.16699C3.95818 12.5036 6.66339 15.208 10 15.208C13.3366 15.208 16.0418 12.5036 16.042 9.16699C16.042 8.82181 16.3218 8.54199 16.667 8.54199ZM10 1.04199C12.6463 1.04199 14.7918 3.18679 14.792 5.83301V9.16699C14.7918 11.8132 12.6463 13.958 10 13.958C7.35374 13.958 5.20818 11.8132 5.20801 9.16699V5.83301C5.20818 3.18679 7.35374 1.04199 10 1.04199ZM10 2.29199C8.0441 2.29199 6.45818 3.87715 6.45801 5.83301V9.16699C6.45818 11.1229 8.0441 12.708 10 12.708C11.7426 12.708 13.1899 11.4496 13.4854 9.79199H11.667C11.3219 9.79199 11.0422 9.51202 11.042 9.16699C11.042 8.82181 11.3218 8.54199 11.667 8.54199H13.542V6.45801H11.667C11.3218 6.45801 11.042 6.17819 11.042 5.83301C11.0422 5.48798 11.3219 5.20801 11.667 5.20801H13.4854C13.1899 3.55035 11.7426 2.29199 10 2.29199Z" fill="#55EEDA"/>
</svg>
