<svg width="60" height="60" viewBox="0 0 60 60" fill="none" xmlns="http://www.w3.org/2000/svg">
<path d="M50 25.625C51.0355 25.625 51.875 26.4645 51.875 27.5C51.875 38.9496 43.0785 48.3448 31.875 49.2959V53.125H37.5C38.5355 53.125 39.375 53.9645 39.375 55C39.375 56.0355 38.5355 56.875 37.5 56.875H22.5C21.4645 56.875 20.625 56.0355 20.625 55C20.625 53.9645 21.4645 53.125 22.5 53.125H28.125V49.2959C16.9215 48.3448 8.125 38.9496 8.125 27.5C8.125 26.4645 8.96447 25.625 10 25.625C11.0355 25.625 11.875 26.4645 11.875 27.5C11.875 37.5102 19.9898 45.625 30 45.625C40.0102 45.625 48.125 37.5102 48.125 27.5C48.125 26.4645 48.9645 25.625 50 25.625ZM30 3.125C37.9391 3.125 44.375 9.56091 44.375 17.5V27.5C44.375 35.4391 37.9391 41.875 30 41.875C22.0609 41.875 15.625 35.4391 15.625 27.5V17.5C15.625 9.56091 22.0609 3.125 30 3.125ZM30 6.875C24.132 6.875 19.375 11.632 19.375 17.5V27.5C19.375 33.368 24.132 38.125 30 38.125C35.2281 38.125 39.5712 34.3485 40.457 29.375H35C33.9645 29.375 33.125 28.5355 33.125 27.5C33.125 26.4645 33.9645 25.625 35 25.625H40.625V19.375H35C33.9645 19.375 33.125 18.5355 33.125 17.5C33.125 16.4645 33.9645 15.625 35 15.625H40.457C39.5712 10.6515 35.2281 6.875 30 6.875Z" fill="#121A32"/>
</svg>
