<svg width="146" height="180" viewBox="0 0 146 180" fill="none" xmlns="http://www.w3.org/2000/svg">
<path d="M139.584 75C143.036 75.0002 145.834 77.7983 145.834 81.25C145.834 119.415 116.512 150.732 79.167 153.902V166.666H97.917C101.369 166.666 104.167 169.464 104.167 172.916C104.167 176.368 101.369 179.166 97.917 179.166H47.917C44.4652 179.166 41.667 176.368 41.667 172.916C41.6672 169.464 44.4653 166.666 47.917 166.666H66.667V153.902C29.3221 150.732 0.000168152 119.415 0 81.25C0 77.7983 2.79837 75.0002 6.25 75C9.70178 75 12.5 77.7982 12.5 81.25C12.5002 114.617 39.5499 141.666 72.917 141.666C106.284 141.666 133.334 114.617 133.334 81.25C133.334 77.7982 136.132 75 139.584 75ZM72.917 0C99.3805 0 120.834 21.4525 120.834 47.916V81.25C120.834 107.713 99.3805 129.166 72.917 129.166C46.4535 129.166 25.0002 107.713 25 81.25V47.916C25.0002 21.4525 46.4535 1.28852e-06 72.917 0ZM72.917 12.5C53.357 12.5 37.5002 28.3561 37.5 47.916V81.25C37.5002 100.81 53.357 116.666 72.917 116.666C90.3443 116.666 104.831 104.079 107.783 87.5H89.584C86.1323 87.5 83.3342 84.7016 83.334 81.25C83.334 77.7982 86.1322 75 89.584 75H108.334V54.166H89.584C86.1322 54.166 83.334 51.3678 83.334 47.916C83.3342 44.4644 86.1323 41.666 89.584 41.666H107.783C104.831 25.087 90.3443 12.5 72.917 12.5Z" fill="white"/>
</svg>
