<svg width="42" height="42" viewBox="0 0 42 42" fill="none" xmlns="http://www.w3.org/2000/svg">
<path fill-rule="evenodd" clip-rule="evenodd" d="M34.6113 17.9375C35.5509 17.9376 36.3125 18.6909 36.3125 19.6201C36.3125 27.4153 30.3573 33.8348 22.7012 34.6719V36.4473H26.1045C27.044 36.4474 27.8057 37.2007 27.8057 38.1299C27.8056 39.0591 27.044 39.8123 26.1045 39.8125H15.8955C14.956 39.8123 14.1944 39.0591 14.1943 38.1299C14.1943 37.2007 14.956 36.4474 15.8955 36.4473H19.2988V34.6719C11.6427 33.8348 5.6875 27.4153 5.6875 19.6201C5.68754 18.6909 6.44915 17.9376 7.38867 17.9375C8.3283 17.9375 9.0898 18.6908 9.08984 19.6201C9.08984 26.1254 14.4224 31.3994 21 31.3994C27.5776 31.3994 32.9102 26.1254 32.9102 19.6201C32.9102 18.6908 33.6717 17.9375 34.6113 17.9375ZM21 2.1875C25.6992 2.1875 29.646 5.40891 30.7529 9.76367C30.883 10.2756 30.9482 10.5317 30.791 10.7344C30.6334 10.9371 30.3494 10.9375 29.7822 10.9375H24.5C23.7751 10.9375 23.1875 11.5251 23.1875 12.25C23.1875 12.9749 23.7751 13.5625 24.5 13.5625H30.0127C30.5075 13.5625 30.7554 13.5621 30.9092 13.7158C31.0629 13.8696 31.0625 14.1175 31.0625 14.6123V16.8877C31.0625 17.3825 31.0629 17.6304 30.9092 17.7842C30.7554 17.9379 30.5075 17.9375 30.0127 17.9375H24.5C23.7751 17.9375 23.1875 18.5251 23.1875 19.25C23.1875 19.9749 23.7751 20.5625 24.5 20.5625H29.7822C30.3494 20.5625 30.6334 20.5629 30.791 20.7656C30.9482 20.9683 30.883 21.2244 30.7529 21.7363C29.646 26.0911 25.6992 29.3125 21 29.3125C15.4426 29.3125 10.9375 24.8074 10.9375 19.25V12.25C10.9375 6.69263 15.4426 2.1875 21 2.1875Z" fill="#121A32"/>
</svg>
