<svg width="17" height="20" viewBox="0 0 17 20" fill="none" xmlns="http://www.w3.org/2000/svg">
<path d="M15.3535 8.25C15.7331 8.25 16.0408 8.55795 16.041 8.9375C16.041 13.1357 12.816 16.581 8.70801 16.9297V18.334H10.7705C11.1502 18.334 11.458 18.6418 11.458 19.0215C11.4578 19.401 11.1501 19.709 10.7705 19.709H5.27051C4.89092 19.709 4.58318 19.401 4.58301 19.0215C4.58301 18.6418 4.89081 18.334 5.27051 18.334H7.33301V16.9297C3.22506 16.581 0 13.1357 0 8.9375C0.000175774 8.55795 0.307913 8.25 0.6875 8.25C1.06694 8.25018 1.37482 8.55806 1.375 8.9375C1.375 12.6079 4.35012 15.584 8.02051 15.584C11.6909 15.584 14.666 12.6079 14.666 8.9375C14.6662 8.55806 14.9741 8.25018 15.3535 8.25ZM8.02051 0C10.9315 0 13.291 2.36048 13.291 5.27148V8.9375C13.291 11.8485 10.9315 14.209 8.02051 14.209C5.10951 14.209 2.75 11.8485 2.75 8.9375V5.27148C2.75 2.36048 5.10951 1.28848e-07 8.02051 0ZM8.02051 1.375C5.8689 1.375 4.125 3.11988 4.125 5.27148V8.9375C4.125 11.0891 5.8689 12.834 8.02051 12.834C9.93756 12.834 11.5298 11.4488 11.8545 9.625H9.85352C9.47397 9.62482 9.16602 9.31709 9.16602 8.9375C9.16619 8.55806 9.47408 8.25018 9.85352 8.25H11.916V5.95898H9.85352C9.47408 5.95881 9.16619 5.65092 9.16602 5.27148C9.16602 4.8919 9.47397 4.58416 9.85352 4.58398H11.8545C11.5298 2.76023 9.93756 1.375 8.02051 1.375Z" fill="#121A32"/>
</svg>
