<svg width="68" height="68" viewBox="0 0 68 68" fill="none" xmlns="http://www.w3.org/2000/svg">
<circle cx="34" cy="34" r="32.5" stroke="white" stroke-width="3"/>
<path d="M21 25.875C21 24.3607 21 23.6035 21.2474 23.0063C21.5772 22.2099 22.2099 21.5772 23.0063 21.2474C23.6035 21 24.3607 21 25.875 21C27.3893 21 28.1465 21 28.7437 21.2474C29.5401 21.5772 30.1728 22.2099 30.5026 23.0063C30.75 23.6035 30.75 24.3607 30.75 25.875V42.125C30.75 43.6393 30.75 44.3965 30.5026 44.9937C30.1728 45.7901 29.5401 46.4228 28.7437 46.7526C28.1465 47 27.3893 47 25.875 47C24.3607 47 23.6035 47 23.0063 46.7526C22.2099 46.4228 21.5772 45.7901 21.2474 44.9937C21 44.3965 21 43.6393 21 42.125V25.875Z" stroke="white" stroke-width="3"/>
<path d="M37.25 25.875C37.25 24.3607 37.25 23.6035 37.4974 23.0063C37.8272 22.2099 38.4599 21.5772 39.2563 21.2474C39.8535 21 40.6107 21 42.125 21C43.6393 21 44.3965 21 44.9937 21.2474C45.7901 21.5772 46.4228 22.2099 46.7526 23.0063C47 23.6035 47 24.3607 47 25.875V42.125C47 43.6393 47 44.3965 46.7526 44.9937C46.4228 45.7901 45.7901 46.4228 44.9937 46.7526C44.3965 47 43.6393 47 42.125 47C40.6107 47 39.8535 47 39.2563 46.7526C38.4599 46.4228 37.8272 45.7901 37.4974 44.9937C37.25 44.3965 37.25 43.6393 37.25 42.125V25.875Z" stroke="white" stroke-width="3"/>
</svg>
