<svg width="27" height="27" viewBox="0 0 27 27" fill="none" xmlns="http://www.w3.org/2000/svg">
<circle cx="13.5" cy="13.5" r="12" stroke="black" stroke-width="3"/>
<path d="M8.69995 10.5002C8.69995 9.94107 8.69995 9.6615 8.7913 9.44098C8.91309 9.14694 9.1467 8.91333 9.44073 8.79154C9.66126 8.7002 9.94082 8.7002 10.5 8.7002C11.0591 8.7002 11.3386 8.7002 11.5592 8.79154C11.8532 8.91333 12.0868 9.14694 12.2086 9.44098C12.3 9.6615 12.3 9.94107 12.3 10.5002V16.5002C12.3 17.0593 12.3 17.3389 12.2086 17.5594C12.0868 17.8534 11.8532 18.0871 11.5592 18.2089C11.3386 18.3002 11.0591 18.3002 10.5 18.3002C9.94082 18.3002 9.66126 18.3002 9.44073 18.2089C9.1467 18.0871 8.91309 17.8534 8.7913 17.5594C8.69995 17.3389 8.69995 17.0593 8.69995 16.5002V10.5002Z" stroke="black" stroke-width="2"/>
<path d="M14.7 10.5002C14.7 9.94107 14.7 9.6615 14.7913 9.44098C14.9131 9.14694 15.1467 8.91333 15.4407 8.79154C15.6613 8.7002 15.9408 8.7002 16.5 8.7002C17.0591 8.7002 17.3386 8.7002 17.5592 8.79154C17.8532 8.91333 18.0868 9.14694 18.2086 9.44098C18.3 9.6615 18.3 9.94107 18.3 10.5002V16.5002C18.3 17.0593 18.3 17.3389 18.2086 17.5594C18.0868 17.8534 17.8532 18.0871 17.5592 18.2089C17.3386 18.3002 17.0591 18.3002 16.5 18.3002C15.9408 18.3002 15.6613 18.3002 15.4407 18.2089C15.1467 18.0871 14.9131 17.8534 14.7913 17.5594C14.7 17.3389 14.7 17.0593 14.7 16.5002V10.5002Z" stroke="black" stroke-width="2"/>
</svg>
