<svg width="60" height="60" viewBox="0 0 60 60" fill="none" xmlns="http://www.w3.org/2000/svg">
<path d="M30 3.125C36.985 3.125 43.3474 5.79276 48.125 10.1592V6.25C48.125 5.21447 48.9645 4.375 50 4.375C51.0355 4.375 51.875 5.21447 51.875 6.25V15C51.875 16.0355 51.0355 16.875 50 16.875H41.25C40.2145 16.875 39.375 16.0355 39.375 15C39.375 13.9645 40.2145 13.125 41.25 13.125H45.8096C41.6728 9.24741 36.1146 6.875 30 6.875C17.2284 6.875 6.875 17.2284 6.875 30C6.875 42.7716 17.2284 53.125 30 53.125C42.7716 53.125 53.125 42.7716 53.125 30C53.125 28.9645 53.9645 28.125 55 28.125C56.0355 28.125 56.875 28.9645 56.875 30C56.875 44.8427 44.8427 56.875 30 56.875C15.1573 56.875 3.125 44.8427 3.125 30C3.125 15.1573 15.1573 3.125 30 3.125ZM24.9951 19.4336C26.3964 19.063 27.7728 19.4015 29.1035 19.9297C30.4125 20.4493 32.0026 21.2919 33.9365 22.3174L34.1387 22.4248C36.1392 23.4855 37.781 24.3566 38.9668 25.165C40.1531 25.9739 41.2604 26.9612 41.668 28.4062C41.9442 29.3857 41.9442 30.4189 41.668 31.3984C41.2604 32.8435 40.1532 33.8308 38.9668 34.6396C37.781 35.4481 36.1392 36.3192 34.1387 37.3799L33.9365 37.4873C32.0026 38.5128 30.4125 39.3554 29.1035 39.875C27.7728 40.4032 26.3964 40.7417 24.9951 40.3711C24.0288 40.1155 23.1373 39.6271 22.4102 38.9424C21.3318 37.9269 20.9554 36.5607 20.7881 35.1807C20.625 33.835 20.6249 32.1035 20.625 30.0244V29.7803C20.6249 27.7012 20.6249 25.9697 20.7881 24.624C20.9554 23.2439 21.3318 21.8778 22.4102 20.8623C23.1373 20.1776 24.0288 19.6892 24.9951 19.4336ZM27.7207 23.415C26.6263 22.9806 26.1794 22.999 25.9541 23.0586C25.5755 23.1587 25.2416 23.3469 24.9805 23.5928C24.8635 23.7031 24.6421 23.9918 24.5107 25.0752C24.3783 26.1678 24.375 27.6695 24.375 29.9023C24.375 32.1351 24.3783 33.6368 24.5107 34.7295C24.6422 35.814 24.8636 36.1028 24.9805 36.2129C25.2416 36.4588 25.5755 36.646 25.9541 36.7461C26.1794 36.8057 26.6263 36.8241 27.7207 36.3896C28.8146 35.9554 30.2214 35.2123 32.2793 34.1211C34.4079 32.9924 35.8622 32.2185 36.8545 31.542C37.8657 30.8526 38.0241 30.5028 38.0586 30.3809C38.1471 30.0669 38.1471 29.7378 38.0586 29.4238C38.024 29.3018 37.8651 28.9527 36.8545 28.2637C35.8622 27.5871 34.408 26.8123 32.2793 25.6836C30.2214 24.5924 28.8146 23.8493 27.7207 23.415Z" fill="white"/>
</svg>
