<svg width="30" height="30" viewBox="0 0 30 30" fill="none" xmlns="http://www.w3.org/2000/svg">
<path d="M30 15C30 23.2842 23.2842 30 15 30C6.71667 30 0 23.2842 0 15C0 6.71667 6.71667 0 15 0C23.2842 0 30 6.71667 30 15Z" fill="#FFCC4D"/>
<path d="M14.4267 14.6767C14.2801 14.5575 14.0709 14.5542 13.9184 14.665C13.9084 14.6725 12.8684 15.4167 10.8334 15.4167C8.79925 15.4167 7.75841 14.6725 7.75008 14.6667C7.59758 14.5525 7.38758 14.5559 7.24091 14.6742C7.09258 14.7925 7.04258 14.9959 7.11925 15.1692C7.16925 15.2817 8.36925 17.9167 10.8334 17.9167C13.2984 17.9167 14.4976 15.2817 14.5476 15.1692C14.6242 14.9967 14.5742 14.795 14.4267 14.6767ZM22.7601 14.6767C22.6134 14.5575 22.4051 14.5534 22.2517 14.665C22.2417 14.6725 21.2009 15.4167 19.1667 15.4167C17.1334 15.4167 16.0917 14.6725 16.0834 14.6667C15.9309 14.5525 15.7217 14.5559 15.5742 14.6742C15.4259 14.7925 15.3759 14.9959 15.4526 15.1692C15.5026 15.2817 16.7026 17.9167 19.1667 17.9167C21.6317 17.9167 22.8309 15.2817 22.8809 15.1692C22.9576 14.9967 22.9076 14.795 22.7601 14.6767ZM18.3334 23.3334H11.6667C11.2067 23.3334 10.8334 22.9609 10.8334 22.5C10.8334 22.0392 11.2067 21.6667 11.6667 21.6667H18.3334C18.7942 21.6667 19.1667 22.0392 19.1667 22.5C19.1667 22.9609 18.7942 23.3334 18.3334 23.3334ZM5.00008 11.6667C4.54008 11.6667 4.16675 11.2934 4.16675 10.8334C4.16675 10.3742 4.53758 10.0017 4.99675 10C5.12675 9.99836 7.97091 9.92836 10.1676 7.00002C10.4434 6.63336 10.9651 6.55669 11.3342 6.83336C11.7026 7.10919 11.7767 7.63169 11.5009 8.00002C8.78175 11.625 5.15341 11.6667 5.00008 11.6667ZM25.0001 11.6667C24.8467 11.6667 21.2192 11.625 18.5001 8.00002C18.2234 7.63169 18.2984 7.10919 18.6667 6.83336C19.0342 6.55586 19.5559 6.63169 19.8326 7.00002C22.0334 9.93419 24.8834 9.99919 25.0042 10C25.4626 10.005 25.8326 10.38 25.8301 10.8375C25.8284 11.2967 25.4584 11.6667 25.0001 11.6667Z" fill="#664500"/>
</svg>
