<svg width="23" height="24" viewBox="0 0 23 24" fill="none" xmlns="http://www.w3.org/2000/svg">
<path d="M12.0168 1.92225e-06C12.3598 -4.05659e-05 12.6831 0.000341126 12.9533 0.0312519C13.2542 0.0657244 13.5711 0.145141 13.8664 0.3584C14.1615 0.571609 14.3364 0.84733 14.464 1.12207C14.5786 1.36893 14.6807 1.67572 14.7892 2.00196L14.8009 2.03613L15.1564 3.09863C15.259 3.35707 15.4386 3.57709 15.6701 3.72949L15.9982 3.91895C16.2722 4.05519 16.5841 4.09414 16.883 4.0293L18.1837 3.66309L18.2218 3.65235C18.5772 3.55147 18.9093 3.45657 19.1955 3.41113C19.5137 3.36061 19.8619 3.3546 20.2218 3.50098C20.5817 3.64735 20.8269 3.89518 21.0197 4.15332C21.193 4.38542 21.3655 4.68462 21.55 5.00488L22.1242 6.00196C22.2971 6.30199 22.4596 6.58354 22.5685 6.83496C22.6898 7.11497 22.7796 7.43135 22.7414 7.7959C22.7031 8.16056 22.5491 8.45149 22.3722 8.7002C22.2134 8.92343 21.9963 9.1655 21.7648 9.42285L21.7404 9.44922L21.7394 9.45117L20.6437 10.6758C20.5069 10.8612 20.3636 11.2642 20.3634 11.6455C20.3634 12.0273 20.5068 12.4306 20.6437 12.6162L21.7404 13.8428L21.7648 13.8701C21.9962 14.1274 22.2135 14.3687 22.3722 14.5918C22.5491 14.8405 22.703 15.1315 22.7414 15.4961C22.7797 15.8607 22.6898 16.177 22.5685 16.457C22.4596 16.7085 22.2971 16.99 22.1242 17.29L21.55 18.2871C21.3654 18.6076 21.1931 18.9075 21.0197 19.1397C20.8269 19.3977 20.5816 19.6447 20.2218 19.791C19.8618 19.9374 19.5137 19.9314 19.1955 19.8809C18.9093 19.8354 18.5772 19.7405 18.2218 19.6397L18.1837 19.6289L16.883 19.2627C16.584 19.1978 16.2714 19.2366 15.9972 19.373L15.6701 19.5625C15.4384 19.715 15.259 19.9357 15.1564 20.1943L14.8009 21.2549L14.7892 21.291C14.6808 21.6171 14.5786 21.9231 14.464 22.1699C14.3364 22.4447 14.1615 22.7203 13.8664 22.9336C13.5711 23.1468 13.2542 23.2263 12.9533 23.2607C12.6831 23.2917 12.3598 23.292 12.0168 23.292H10.7326C10.3896 23.292 10.0672 23.2916 9.79702 23.2607C9.49598 23.2263 9.17933 23.1469 8.88394 22.9336C8.58866 22.7203 8.41291 22.4447 8.28531 22.1699C8.17079 21.9232 8.06949 21.617 7.96109 21.291L7.94839 21.2549L7.5939 20.1943C7.49134 19.9358 7.31175 19.715 7.08023 19.5625L6.7521 19.373C6.47793 19.2367 6.16534 19.1977 5.86636 19.2627L4.56558 19.6289L4.52847 19.6397C4.17327 19.7405 3.8409 19.8354 3.55484 19.8809C3.23667 19.9314 2.88838 19.9373 2.52847 19.791C2.16874 19.6447 1.92338 19.3977 1.73062 19.1397C1.55716 18.9074 1.38403 18.6077 1.19937 18.2871L1.17984 18.252L0.625149 17.29C0.452276 16.9901 0.290643 16.7084 0.18179 16.457C0.0605248 16.177 -0.029368 15.8607 0.0089383 15.4961C0.0472675 15.1315 0.20025 14.8405 0.377102 14.5918C0.535909 14.3685 0.753978 14.1275 0.985501 13.8701L1.00894 13.8428L1.01089 13.8408L2.10659 12.6162C2.24344 12.4305 2.38589 12.0272 2.38589 11.6455C2.38577 11.2643 2.24341 10.8613 2.10659 10.6758L1.01089 9.45117L1.00894 9.44922L0.985501 9.42285C0.753923 9.16538 0.535919 8.92352 0.377102 8.7002C0.200236 8.4515 0.0472474 8.16055 0.0089383 7.7959C-0.029328 7.43134 0.0605399 7.11497 0.18179 6.83496C0.290665 6.58362 0.452282 6.30187 0.625149 6.00196C0.6315 5.99094 0.638304 5.97982 0.64468 5.96875L1.17984 5.04102C1.18651 5.02944 1.19273 5.01739 1.19937 5.00586C1.38401 4.68534 1.55718 4.38556 1.73062 4.15332C1.92342 3.89518 2.1686 3.64735 2.52847 3.50098C2.88834 3.35471 3.23671 3.36063 3.55484 3.41113C3.8409 3.45659 4.17327 3.5515 4.52847 3.65235C4.54107 3.65592 4.55389 3.65949 4.56656 3.66309L5.86636 4.0293C6.16535 4.09424 6.47793 4.05533 6.7521 3.91895L7.08023 3.72949C7.31165 3.57708 7.49134 3.35704 7.5939 3.09863L7.94839 2.03809C7.95232 2.02629 7.95718 2.01371 7.96109 2.00196C8.06957 1.67573 8.17069 1.36893 8.28531 1.12207C8.41292 0.847224 8.58862 0.571675 8.88394 0.3584C9.17932 0.145113 9.496 0.0657015 9.79702 0.0312519C10.0672 0.000350375 10.3896 -4.05489e-05 10.7326 1.92225e-06H12.0168ZM10.7716 1.625C10.3768 1.625 10.1483 1.62645 9.98159 1.64551C9.90734 1.65402 9.86839 1.66381 9.84976 1.66992C9.84123 1.67275 9.83511 1.67578 9.83511 1.67578L9.83413 1.67676C9.83341 1.67751 9.83008 1.68116 9.82534 1.6875C9.81359 1.70329 9.79189 1.73778 9.75991 1.80664C9.68904 1.95928 9.61522 2.17554 9.49038 2.55078L9.1232 3.64942L9.11636 3.66602C8.88871 4.25938 8.4776 4.76468 7.94253 5.10742L7.92691 5.11719L7.52847 5.34766L7.51089 5.35645C6.88662 5.67719 6.1684 5.76708 5.48452 5.60938L5.46597 5.60449L4.1232 5.22656C3.71562 5.11091 3.47834 5.04497 3.29995 5.0166C3.21959 5.00384 3.17609 5.00366 3.15542 5.00488C3.14598 5.00546 3.14077 5.00586 3.14077 5.00586L3.1398 5.00684C3.1398 5.00684 3.13532 5.00938 3.12808 5.01563C3.11232 5.02923 3.08128 5.05955 3.03238 5.125C2.92397 5.27015 2.7991 5.48359 2.58706 5.85156L2.05288 6.78028C1.85429 7.12492 1.74043 7.32491 1.673 7.48047C1.64257 7.55074 1.63111 7.59081 1.6271 7.61035C1.62528 7.61929 1.62515 7.625 1.62515 7.625V7.62793C1.62534 7.62859 1.62661 7.63376 1.63003 7.6416C1.63797 7.65979 1.65721 7.69574 1.70132 7.75781C1.79954 7.89592 1.95274 8.06827 2.2189 8.36426L2.22085 8.36621L3.35366 9.63379L3.36929 9.65332C3.77476 10.1667 4.01078 10.9553 4.01089 11.6455C4.01089 12.3362 3.77497 13.1261 3.36929 13.6397L3.35366 13.6592L2.22085 14.9258L2.2189 14.9277C1.95267 15.2238 1.79955 15.3961 1.70132 15.5342C1.65727 15.5962 1.63802 15.6321 1.63003 15.6504C1.62687 15.6576 1.62551 15.6628 1.62515 15.6641V15.668C1.62526 15.6693 1.62561 15.6743 1.6271 15.6816C1.63111 15.7012 1.64257 15.7413 1.673 15.8115C1.74043 15.9672 1.85411 16.1677 2.05288 16.5127L2.58706 17.4404C2.79911 17.8084 2.92396 18.0218 3.03238 18.167C3.08122 18.2324 3.11227 18.2627 3.12808 18.2764C3.13532 18.2826 3.1398 18.2861 3.1398 18.2861H3.14077C3.14077 18.2861 3.14598 18.2875 3.15542 18.2881C3.17611 18.2893 3.21965 18.2881 3.29995 18.2754C3.47835 18.247 3.71561 18.1811 4.1232 18.0654L5.46597 17.6875L5.48452 17.6836C6.16852 17.5259 6.88654 17.6147 7.51089 17.9355L7.52847 17.9453L7.92691 18.1748L7.94253 18.1846C8.4775 18.5273 8.88872 19.0327 9.11636 19.626L9.1232 19.6426L9.49038 20.7412C9.61515 21.1162 9.68908 21.3327 9.75991 21.4854C9.79188 21.5542 9.81358 21.5887 9.82534 21.6045C9.82985 21.6105 9.83313 21.6142 9.83413 21.6152L9.83511 21.6162C9.83511 21.6162 9.84123 21.6192 9.84976 21.6221C9.86835 21.6282 9.90723 21.638 9.98159 21.6465C10.1483 21.6656 10.3768 21.667 10.7716 21.667H11.9787C12.3732 21.667 12.6011 21.6655 12.7677 21.6465C12.8427 21.6379 12.882 21.6282 12.9005 21.6221C12.9074 21.6198 12.9118 21.6178 12.9132 21.6172L12.9152 21.6152C12.9152 21.6152 12.9195 21.6118 12.925 21.6045C12.9367 21.5886 12.9585 21.554 12.9904 21.4854C13.0612 21.3327 13.1342 21.1161 13.2589 20.7412L13.2599 20.7402L13.6271 19.6426L13.6339 19.626C13.8616 19.0328 14.2728 18.5273 14.8078 18.1846L14.8234 18.1748L15.2218 17.9453L15.2394 17.9355C15.8636 17.6148 16.581 17.526 17.2648 17.6836L17.2843 17.6875L18.6261 18.0654C19.0342 18.1812 19.2719 18.247 19.4503 18.2754C19.5311 18.2882 19.5743 18.2893 19.5949 18.2881C19.6043 18.2875 19.6095 18.2861 19.6095 18.2861H19.6105C19.6105 18.2861 19.615 18.2826 19.6222 18.2764C19.6381 18.2626 19.6692 18.2322 19.7179 18.167C19.8263 18.0219 19.9503 17.8083 20.1623 17.4404L20.6974 16.5127C20.8962 16.1677 21.0099 15.9672 21.0773 15.8115C21.1077 15.7413 21.1192 15.7012 21.1232 15.6816C21.1247 15.6742 21.125 15.6693 21.1251 15.668V15.6641C21.1248 15.663 21.1225 15.6578 21.1193 15.6504C21.1112 15.632 21.092 15.596 21.048 15.5342C20.9498 15.396 20.7967 15.2239 20.5304 14.9277L19.3957 13.6592L19.38 13.6397C18.9744 13.1261 18.7384 12.3362 18.7384 11.6455C18.7385 10.9554 18.9747 10.1667 19.38 9.65332L19.3957 9.63379L20.5294 8.36621L20.5304 8.36426C20.7967 8.0681 20.9498 7.89596 21.048 7.75781C21.0921 7.69579 21.1113 7.65989 21.1193 7.6416C21.123 7.63316 21.1251 7.62793 21.1251 7.62793V7.625C21.1251 7.625 21.125 7.61925 21.1232 7.61035C21.1192 7.59081 21.1077 7.55074 21.0773 7.48047C21.0099 7.32492 20.896 7.12492 20.6974 6.78028L20.1623 5.85156C19.9503 5.48376 19.8263 5.27011 19.7179 5.125C19.6691 5.0597 19.638 5.02932 19.6222 5.01563C19.6159 5.01016 19.6114 5.00743 19.6105 5.00684L19.6095 5.00586C19.6095 5.00586 19.6043 5.00546 19.5949 5.00488C19.5743 5.00364 19.5311 5.00379 19.4503 5.0166C19.2719 5.04495 19.0342 5.11076 18.6261 5.22656L17.2843 5.60449L17.2648 5.60938C16.5811 5.76695 15.8635 5.67713 15.2394 5.35645L15.2218 5.34766L14.8234 5.11719L14.8078 5.10742C14.2727 4.7647 13.8616 4.25939 13.6339 3.66602L13.6271 3.64942L13.2589 2.55078C13.1342 2.17571 13.0612 1.95926 12.9904 1.80664C12.9584 1.73776 12.9367 1.70329 12.925 1.6875C12.9195 1.68022 12.9152 1.67676 12.9152 1.67676L12.9142 1.67578C12.9128 1.67508 12.9077 1.67229 12.9005 1.66992C12.882 1.66381 12.8425 1.65407 12.7677 1.64551C12.6011 1.62649 12.3732 1.625 11.9787 1.625H10.7716ZM11.3283 7.03321C13.8711 7.03321 15.9328 9.09489 15.9328 11.6377C15.9328 14.1805 13.8711 16.2422 11.3283 16.2422C8.78552 16.2421 6.72378 14.1805 6.72378 11.6377C6.72378 9.09493 8.78552 7.03327 11.3283 7.03321ZM11.3283 8.65821C9.68298 8.65827 8.34878 9.99239 8.34878 11.6377C8.34878 13.283 9.68298 14.6171 11.3283 14.6172C12.9736 14.6172 14.3078 13.283 14.3078 11.6377C14.3078 9.99235 12.9736 8.65821 11.3283 8.65821Z" fill="white"/>
</svg>
