<svg width="30" height="31" viewBox="0 0 30 31" fill="none" xmlns="http://www.w3.org/2000/svg">
<path d="M30 15C30 23.2842 23.2842 30 15 30C6.71667 30 0 23.2842 0 15C0 6.71667 6.71667 0 15 0C23.2842 0 30 6.71667 30 15Z" fill="#FFCC4D"/>
<path d="M21.2372 23.2329C21.1997 23.0837 20.2639 19.5837 14.9997 19.5837C9.73471 19.5837 8.79972 23.0837 8.76221 23.2329C8.71638 23.4137 8.79805 23.6012 8.95971 23.6946C9.12221 23.7871 9.32555 23.7596 9.45971 23.6304C9.47555 23.6146 11.088 22.0837 14.9997 22.0837C18.9114 22.0837 20.5247 23.6146 20.5397 23.6296C20.6197 23.7087 20.7264 23.7504 20.833 23.7504C20.903 23.7504 20.9739 23.7329 21.038 23.6971C21.2014 23.6037 21.283 23.4146 21.2372 23.2329ZM24.1672 11.6671C23.913 11.6671 23.6639 11.5521 23.4997 11.3337C21.473 8.6304 18.0714 10.6287 17.928 10.7146C17.5322 10.9521 17.0205 10.8229 16.7847 10.4287C16.548 10.0337 16.6755 9.52206 17.0705 9.2854C18.7355 8.28623 22.4989 7.22123 24.8322 10.3329C25.1089 10.7012 25.0339 11.2237 24.6656 11.4996C24.5164 11.6129 24.3414 11.6671 24.1672 11.6671ZM5.83221 11.6671C5.65888 11.6671 5.48305 11.6129 5.33305 11.5004C4.96471 11.2246 4.89055 10.7021 5.16638 10.3337C7.50055 7.22206 11.2639 8.28706 12.928 9.28623C13.323 9.5229 13.4505 10.0346 13.2139 10.4296C12.9772 10.8237 12.4672 10.9529 12.0722 10.7162C11.923 10.6279 8.51055 8.65373 6.49888 11.3346C6.33638 11.5521 6.08555 11.6671 5.83221 11.6671ZM24.1664 13.3337C24.1664 12.8737 23.7939 12.5004 23.333 12.5004H17.4997C17.0389 12.5004 16.6664 12.8737 16.6664 13.3337C16.6664 13.7937 17.0389 14.1671 17.4997 14.1671H21.743C21.9155 14.6512 22.373 15.0004 22.9164 15.0004C23.6064 15.0004 24.1664 14.4412 24.1664 13.7504C24.1664 13.6587 24.1547 13.5696 24.1364 13.4829C24.1464 13.4329 24.1664 13.3862 24.1664 13.3337ZM13.333 13.3337C13.333 12.8737 12.9597 12.5004 12.4997 12.5004H6.66638C6.20638 12.5004 5.83305 12.8737 5.83305 13.3337C5.83305 13.7937 6.20638 14.1671 6.66638 14.1671H10.9097C11.0822 14.6512 11.5397 15.0004 12.083 15.0004C12.773 15.0004 13.333 14.4412 13.333 13.7504C13.333 13.6587 13.3214 13.5696 13.303 13.4829C13.3122 13.4329 13.333 13.3862 13.333 13.3337Z" fill="#664500"/>
</svg>
