<svg width="20" height="20" viewBox="0 0 20 20" fill="none" xmlns="http://www.w3.org/2000/svg">
<path d="M13.7502 10.209C15.7061 10.2088 17.2913 8.62283 17.2913 6.66699C17.2912 4.71112 15.7061 3.12519 13.7502 3.125C13.3776 3.125 13.0182 3.18336 12.6809 3.29004C12.0776 2.19955 10.9189 1.45899 9.58325 1.45898C7.62737 1.45898 6.04147 3.04416 6.04126 5C6.04126 6.95595 7.62723 8.54199 9.58325 8.54199C9.95407 8.54199 10.312 8.48407 10.6487 8.37793C11.2521 9.46937 12.4148 10.209 13.7502 10.209ZM9.58325 7.29199C8.3176 7.29199 7.29126 6.26561 7.29126 5C7.29147 3.73452 8.31772 2.70898 9.58325 2.70898C10.4377 2.70899 11.1824 3.17755 11.5764 3.87207C10.7443 4.52012 10.2083 5.53056 10.2083 6.66699C10.2083 6.84618 10.2216 7.0223 10.2473 7.19434C10.0375 7.25774 9.81469 7.29199 9.58325 7.29199ZM13.7502 8.95898C12.4846 8.95898 11.4583 7.9326 11.4583 6.66699C11.4583 5.40136 12.4846 4.375 13.7502 4.375C15.0157 4.37519 16.0412 5.40147 16.0413 6.66699C16.0413 7.93249 15.0157 8.9588 13.7502 8.95898ZM8.48462 18.4473C9.08833 18.6264 9.73567 18.5483 10.2815 18.2334L16.5442 14.6201C17.3218 14.1714 17.522 13.1371 17.0042 12.4199C16.4267 11.6204 15.4179 11.2676 14.4758 11.5605L14.4749 11.5615L11.0354 12.6182C10.6409 12.1012 10.0096 11.7715 9.31177 11.7715H8.44263C8.29133 11.7714 8.1427 11.7375 8.00903 11.6729L6.30786 10.8486C6.00326 10.7013 5.66803 10.625 5.32935 10.625H3.33325C2.98827 10.6251 2.70846 10.905 2.70825 11.25C2.70825 11.5951 2.98814 11.8749 3.33325 11.875H5.32935C5.48072 11.875 5.6292 11.9099 5.76294 11.9746L7.46509 12.7979C7.76954 12.9451 8.10414 13.0214 8.44263 13.0215H9.31177C9.66702 13.0215 9.95891 13.2113 10.1057 13.4766L8.49438 13.9229C8.26014 13.9876 8.00937 13.964 7.79321 13.8594L5.97388 12.9795C5.6632 12.8293 5.28922 12.9599 5.13892 13.2705C4.98895 13.5811 5.11938 13.9542 5.42993 14.1045L7.24829 14.9854C7.7388 15.2227 8.30196 15.2722 8.82739 15.127L10.9446 14.542C11.2362 14.4614 11.4581 14.1949 11.4583 13.8691C11.4583 13.8448 11.4581 13.8201 11.4573 13.7959L14.844 12.7549H14.8469C15.2613 12.6259 15.7181 12.7745 15.9905 13.1514C16.087 13.2851 16.0376 13.4689 15.9202 13.5371L9.65649 17.1514C9.4057 17.296 9.11257 17.3299 8.84009 17.249L3.51099 15.668C3.18026 15.5699 2.83297 15.7583 2.73462 16.0889C2.63643 16.4198 2.82465 16.768 3.15552 16.8662L8.48462 18.4473Z" fill="#55EEDA"/>
</svg>
