<svg width="28" height="28" viewBox="0 0 28 28" fill="none" xmlns="http://www.w3.org/2000/svg">
<path d="M14 1.45801C20.9266 1.45801 26.542 7.07343 26.542 14C26.542 20.9266 20.9266 26.542 14 26.542C7.07343 26.542 1.45801 20.9266 1.45801 14C1.45801 7.07343 7.07343 1.45801 14 1.45801ZM14 3.20801C8.03993 3.20801 3.20801 8.03993 3.20801 14C3.20801 19.9601 8.03993 24.792 14 24.792C19.9601 24.792 24.792 19.9601 24.792 14C24.792 8.03993 19.9601 3.20801 14 3.20801ZM8.11719 19.2295C11.1657 16.0366 16.7816 15.8637 19.8936 19.2402C20.221 19.5956 20.1981 20.1491 19.8428 20.4766C19.4875 20.804 18.934 20.7819 18.6064 20.4268C16.2193 17.8366 11.775 17.932 9.38281 20.4375C9.0491 20.787 8.49503 20.7995 8.14551 20.4658C7.79636 20.1321 7.78376 19.5789 8.11719 19.2295ZM13.9902 7.29199C16.0853 7.29205 17.786 8.98794 17.7861 11.083C17.7861 13.1782 16.0854 14.8749 13.9902 14.875C11.895 14.875 10.1943 13.1783 10.1943 11.083C10.1945 8.9879 11.8951 7.29199 13.9902 7.29199ZM13.9902 9.04199C12.8593 9.04199 11.9445 9.95675 11.9443 11.083C11.9443 12.2094 12.8592 13.125 13.9902 13.125C15.1212 13.1249 16.0361 12.2094 16.0361 11.083C16.036 9.95679 15.1211 9.04205 13.9902 9.04199Z" fill="white"/>
</svg>
